<svg width="127" height="171" viewBox="0 0 127 171" fill="none" xmlns="http://www.w3.org/2000/svg">
<path d="M48.4085 103.386C43.5915 103.386 36.78 88.6397 43.936 80.8327C44.8743 79.9833 46.0962 78.8565 47.514 77.5228C38.3368 75.7495 31.6803 75.2248 26.0442 78.2277C16.2047 83.4701 14.4157 86.9022 9.94325 94.7093C3.07466 106.699 1.8945 129.828 1 164.526H27.8332C27.8332 164.526 31.4112 171.027 37.6727 169.86C43.0609 168.855 51.7904 166.095 55.8721 164.526C58.0674 163.626 59.13 163.37 61.2993 162.583C66.1409 160.828 70.0268 159.623 73.529 158.195C75.8246 157.258 83.848 153.091 87.2676 152.489C85.3451 150.878 82.0907 146.657 84.4537 142.661C81.8741 143.598 77.0901 143.905 73.529 144.672C65.4785 146.407 63.0599 146.783 57.3517 147.657C54.0623 148.16 52.0235 148.536 49.4085 148.726C44.76 149.064 40.4508 148.816 39.4542 147.657C37.3168 145.171 36.0461 141.357 34.1272 133.001C45.6835 115.327 53.5528 110.784 60.037 115.5C62.5796 117.349 64.4872 119.501 67 123C68.5058 121.354 70.8364 117.068 72.56 115.5C64.5205 107.719 66.0448 92.7854 58.248 87.7723C54.6682 92.107 56.459 103.386 48.4085 103.386Z" fill="#DEEFF0"/>
<path d="M63.6155 61.7462L64.369 62.4036C64.6692 62.0596 64.6982 61.5559 64.4395 61.1797L63.6155 61.7462ZM43.936 80.8327L43.2649 80.0912C43.2419 80.1121 43.2198 80.134 43.1988 80.157L43.936 80.8327ZM58.248 87.7723L57.5516 87.0546C57.5252 87.0802 57.5003 87.1072 57.4769 87.1355L58.248 87.7723ZM9.94325 94.7093L10.8109 95.2064L9.94325 94.7093ZM1 164.526L0.000332117 164.501C-0.0066179 164.77 0.095617 165.031 0.28384 165.224C0.472063 165.417 0.730315 165.526 1 165.526L1 164.526ZM94.6528 164.526V165.526C95.1621 165.526 95.5901 165.144 95.6466 164.637L94.6528 164.526ZM84.8628 113.895L84.4719 114.816L84.8628 113.895ZM60.037 115.5L59.4488 116.309L60.037 115.5ZM13.5989 117.969C13.508 117.424 12.9927 117.056 12.4479 117.147C11.9032 117.238 11.5353 117.753 11.6262 118.298L12.6125 118.133L13.5989 117.969ZM29.6232 103.151C29.493 102.614 28.9523 102.284 28.4156 102.415C27.8789 102.545 27.5494 103.086 27.6796 103.622L28.6514 103.386L29.6232 103.151ZM39.4542 147.657L40.2124 147.005L39.4542 147.657ZM96.2488 150.234L95.9337 149.285C95.8581 149.31 95.7858 149.344 95.7183 149.386L96.2488 150.234ZM87.2676 152.489L87.4409 153.474L87.2676 152.489ZM37.6727 169.86L37.8561 170.843L37.6727 169.86ZM26.0442 78.2277L26.5145 79.1103L26.0442 78.2277ZM67.1935 46.9995L67.0031 46.0177L67.1935 46.9995ZM75.2439 54.8065H74.2439C74.2439 55.1771 74.4488 55.5172 74.7763 55.6905L75.2439 54.8065ZM118.561 65.1607H119.561C119.561 64.8122 119.38 64.4889 119.082 64.3073C118.785 64.1256 118.414 64.1119 118.104 64.2711L118.561 65.1607ZM116.362 73.2911L115.469 72.8413L116.362 73.2911ZM118.408 33.9875L119.137 33.3036L118.408 33.9875ZM61.9617 55.6739L62.9614 55.7002L61.9617 55.6739ZM79.0487 23.523L79.4325 24.4464L79.0487 23.523ZM97.9879 22.1824L97.7906 23.1627V23.1627L97.9879 22.1824ZM72.56 94.7093L72.3913 95.695L72.56 94.7093ZM62.9467 84.2999L61.9977 84.6151L62.9467 84.2999ZM122.137 72.1003L122.82 72.8312L122.137 72.1003ZM95.9696 90.403L95.5312 89.5042L95.9696 90.403ZM105.809 84.3308L106.421 85.1221L105.809 84.3308ZM101.337 91.2704L101.77 92.1717L101.337 91.2704ZM34.1272 133.001L33.1412 133.167C33.1444 133.186 33.1482 133.205 33.1525 133.224L34.1272 133.001ZM90.3486 138.445L90.9793 139.221L90.3486 138.445ZM61.2993 162.583L60.9584 161.643L61.2993 162.583ZM73.529 144.672L73.7397 145.65L73.529 144.672ZM57.3517 147.657L57.2004 146.668L57.3517 147.657ZM72.56 115.5L73.233 116.239L72.56 115.5ZM62.6075 78.1184C62.5471 77.5695 62.0532 77.1733 61.5042 77.2337C60.9552 77.294 60.5591 77.788 60.6195 78.337L61.6135 78.2277L62.6075 78.1184ZM73.529 158.195L73.1513 157.269L73.529 158.195ZM59.4994 44.0498L60.4285 44.4197L59.4994 44.0498ZM57.2945 68.4491L57.9943 69.1634L57.2945 68.4491ZM90.3486 78.8327H91.3486C91.3486 78.4715 91.1539 78.1385 90.8392 77.9613C90.5246 77.7841 90.1388 77.7904 89.83 77.9776L90.3486 78.8327ZM86 84.5L86.4717 83.6183L86 84.5ZM52 140.5C52 139.948 51.5523 139.5 51 139.5C50.4477 139.5 50 139.948 50 140.5H51H52ZM49.4085 148.726L49.481 149.723L49.4085 148.726ZM43.936 80.8327L43.1988 80.157C39.2821 84.43 39.2642 90.4973 40.7252 95.3268C41.4614 97.7606 42.5948 99.9664 43.8904 101.585C45.1412 103.148 46.7284 104.386 48.4085 104.386V103.386V102.386C47.6801 102.386 46.6094 101.782 45.4519 100.335C44.3392 98.9452 43.3137 96.9764 42.6395 94.7477C41.2795 90.252 41.4339 85.0424 44.6732 81.5084L43.936 80.8327ZM48.4085 103.386V104.386C50.6932 104.386 52.3633 103.57 53.5796 102.228C54.7537 100.933 55.4482 99.2111 55.9628 97.4916C56.2227 96.6231 56.4447 95.7257 56.6561 94.853C56.8696 93.972 57.071 93.1212 57.2962 92.3074C57.7525 90.6584 58.2678 89.3187 59.019 88.4091L58.248 87.7723L57.4769 87.1355C56.4383 88.3932 55.835 90.0889 55.3687 91.774C55.1326 92.6272 54.9217 93.518 54.7124 94.3821C54.501 95.2546 54.2899 96.1058 54.0467 96.9182C53.5553 98.5604 52.9642 99.9292 52.098 100.885C51.274 101.793 50.149 102.386 48.4085 102.386V103.386ZM47.514 77.5228L46.8288 76.7944C45.4148 78.1246 44.1977 79.247 43.2649 80.0912L43.936 80.8327L44.607 81.5741C45.5509 80.7197 46.7776 79.5885 48.1992 78.2512L47.514 77.5228ZM9.94325 94.7093L9.07555 94.2122C5.53282 100.396 3.50527 109.351 2.23722 120.994C0.966644 132.66 0.447456 147.156 0.000332117 164.501L1 164.526L1.99967 164.552C2.44704 147.198 2.96519 132.781 4.22546 121.21C5.48826 109.616 7.48509 101.012 10.8109 95.2064L9.94325 94.7093ZM1 164.526V165.526H27.8332V164.526V163.526H1V164.526ZM12.6125 118.133L11.6262 118.298C14.3207 134.446 16.1469 144.043 26.9444 164.985L27.8332 164.526L28.722 164.068C18.0481 143.367 16.2713 133.984 13.5989 117.969L12.6125 118.133ZM37.6727 169.86L37.4894 168.877C34.7703 169.384 32.6114 168.244 31.0664 166.881C30.2954 166.201 29.6998 165.483 29.2967 164.933C29.096 164.659 28.9452 164.43 28.8464 164.272C28.797 164.193 28.7607 164.133 28.7377 164.094C28.7263 164.074 28.7181 164.06 28.7134 164.051C28.711 164.047 28.7095 164.045 28.7088 164.043C28.7085 164.043 28.7083 164.042 28.7084 164.043C28.7085 164.043 28.7086 164.043 28.7087 164.043C28.7088 164.043 28.7089 164.044 28.709 164.044C28.7091 164.044 28.7093 164.044 27.8332 164.526C26.9572 165.009 26.9574 165.009 26.9576 165.009C26.9577 165.01 26.9579 165.01 26.9581 165.01C26.9585 165.011 26.9589 165.012 26.9594 165.013C26.9603 165.014 26.9615 165.016 26.9629 165.019C26.9657 165.024 26.9694 165.031 26.974 165.039C26.9832 165.055 26.9959 165.077 27.0122 165.105C27.0447 165.16 27.0914 165.238 27.1521 165.335C27.2733 165.528 27.451 165.798 27.6835 166.115C28.147 166.747 28.8372 167.582 29.7435 168.381C31.5528 169.977 34.3137 171.503 37.8561 170.843L37.6727 169.86ZM47.514 77.5228L47.7037 76.541C38.5395 74.7701 31.554 74.159 25.574 77.3451L26.0442 78.2277L26.5145 79.1103C31.8066 76.2907 38.1341 76.7288 47.3243 78.5046L47.514 77.5228ZM26.0442 78.2277L25.574 77.3451C20.5967 79.997 17.5798 82.2309 15.2372 84.8385C12.9145 87.4239 11.2938 90.3401 9.07555 94.2122L9.94325 94.7093L10.8109 95.2064C13.0652 91.2714 14.5752 88.5681 16.725 86.1751C18.855 83.8042 21.6523 81.7008 26.5145 79.1103L26.0442 78.2277ZM67.1935 46.9995L67.3839 47.9812C69.3867 47.5927 71.0591 47.9986 72.2289 49.0457C73.4072 50.1005 74.2439 51.9571 74.2439 54.8065H75.2439H76.2439C76.2439 51.5838 75.2916 49.1031 73.5629 47.5556C71.8255 46.0003 69.4727 45.5387 67.0031 46.0177L67.1935 46.9995ZM75.2439 54.8065L74.7763 55.6905C79.5872 58.2353 86.7615 62.8558 94.5359 65.7983C102.338 68.7513 111.042 70.145 119.018 66.0503L118.561 65.1607L118.104 64.2711C110.873 67.9835 102.839 66.8025 95.2438 63.9278C87.6212 61.0427 80.7401 56.5825 75.7115 53.9226L75.2439 54.8065ZM118.561 65.1607H117.561C117.561 68.3986 116.671 70.4556 115.469 72.8413L116.362 73.2911L117.256 73.741C118.509 71.2532 119.561 68.8624 119.561 65.1607H118.561ZM63.6155 61.7462L64.4395 61.1797C63.3672 59.6197 62.9097 57.6677 62.9614 55.7002L61.9617 55.6739L60.9621 55.6477C60.9018 57.9394 61.4295 60.3316 62.7914 62.3127L63.6155 61.7462ZM61.9617 55.6739L62.9614 55.7002C63.0115 53.7905 63.5406 51.9319 64.3746 50.5075C65.2181 49.0669 66.2938 48.1926 67.3839 47.9812L67.1935 46.9995L67.0031 46.0177C65.1421 46.3787 63.6562 47.7762 62.6487 49.497C61.6317 51.2341 61.0204 53.4265 60.9621 55.6477L61.9617 55.6739ZM118.408 33.9875L119.137 33.3036C115.062 28.956 111.643 26.2816 108.304 24.5155C104.964 22.7486 101.76 21.9214 98.1852 21.202L97.9879 22.1824L97.7906 23.1627C101.302 23.8692 104.283 24.651 107.369 26.2834C110.456 27.9166 113.704 30.4318 117.678 34.6714L118.408 33.9875ZM97.9879 22.1824L98.1852 21.202C95.4912 20.6599 91.9933 20.4428 88.5017 20.6372C85.0173 20.8312 81.4562 21.4395 78.6649 22.5996L79.0487 23.523L79.4325 24.4464C81.9362 23.4058 85.2493 22.8214 88.6129 22.6341C91.9695 22.4472 95.2937 22.6602 97.7906 23.1627L97.9879 22.1824ZM97.9879 22.1824L98.9313 21.8506C91.5815 0.953945 72.9442 -1.88621 65.2915 0.89679L65.6333 1.83658L65.9751 2.77636C72.6343 0.354632 90.0823 2.71921 97.0446 22.5141L97.9879 22.1824ZM65.6333 1.83658L65.2915 0.89679C63.1801 1.66462 61.8482 3.25767 60.8633 5.12443C59.8961 6.95786 59.1913 9.20556 58.4286 11.3718C56.8692 15.8005 54.9657 20.2108 49.9905 22.6232L50.4268 23.523L50.8631 24.4228C56.6218 21.6305 58.7436 16.4989 60.315 12.0361C61.1176 9.75659 61.7546 7.72119 62.6323 6.05767C63.4923 4.42748 64.5084 3.30972 65.9751 2.77636L65.6333 1.83658ZM50.4268 23.523L49.9905 22.6232C47.4514 23.8543 44.6559 24.4365 41.7632 24.7747C40.318 24.9437 38.8625 25.0504 37.4083 25.1502C35.9616 25.2494 34.5089 25.3422 33.1051 25.4832C30.3073 25.7641 27.5816 26.2456 25.2499 27.4363C22.8777 28.6478 20.9591 30.5696 19.7498 33.6189L20.6793 33.9875L21.6089 34.3562C22.6358 31.767 24.2121 30.2121 26.1596 29.2175C28.1477 28.2022 30.5667 27.7481 33.3049 27.4732C34.6692 27.3362 36.0824 27.2458 37.5451 27.1455C39.0004 27.0456 40.4981 26.9362 41.9954 26.7612C44.9878 26.4114 48.0352 25.794 50.8631 24.4228L50.4268 23.523ZM20.6793 33.9875L19.7498 33.6189C18.5965 36.5267 18.1687 38.8246 18.1839 40.7588C18.1992 42.7024 18.6618 44.214 19.1929 45.5302C20.2642 48.1851 21.3969 49.7519 20.6055 52.8219L21.5738 53.0715L22.5422 53.3212C23.5397 49.4516 21.989 47.1148 21.0476 44.7818C20.5724 43.6041 20.1965 42.3506 20.1838 40.7431C20.1711 39.1262 20.5259 37.0868 21.6089 34.3562L20.6793 33.9875ZM21.5738 53.0715L20.6055 52.8219C20.2108 54.353 19.0435 56.158 17.519 58.3913C16.0377 60.5612 14.2827 63.0539 12.9569 65.8046C11.6248 68.5683 10.6937 71.6532 10.888 75.0435C11.0829 78.4453 12.4055 82.0583 15.4195 85.8805L16.2047 85.2613L16.99 84.6422C14.1898 81.091 13.0527 77.8611 12.8847 74.9291C12.716 71.9856 13.5184 69.2459 14.7586 66.673C16.005 64.087 17.6607 61.731 19.1708 59.5189C20.6377 57.3701 22.0424 55.2599 22.5422 53.3212L21.5738 53.0715ZM72.56 94.7093L72.7286 93.7237C71.0041 93.4285 69.1177 92.019 67.4437 90.0493C65.7931 88.1073 64.4965 85.7932 63.8957 83.9846L62.9467 84.2999L61.9977 84.6151C62.6891 86.6963 64.1241 89.2318 65.9197 91.3445C67.6918 93.4296 69.9659 95.2799 72.3913 95.695L72.56 94.7093ZM116.362 73.2911L115.786 74.1083C117.019 74.9778 118.537 74.8784 119.741 74.528C120.964 74.1722 122.113 73.4916 122.82 72.8312L122.137 72.1003L121.455 71.3694C120.986 71.807 120.117 72.3356 119.182 72.6076C118.228 72.8851 117.447 72.8321 116.939 72.4739L116.362 73.2911ZM122.137 72.1003L122.82 72.8312C124.414 71.3427 125.521 68.7167 126.192 65.6463C126.873 62.5335 127.141 58.7993 126.93 54.9213C126.51 47.2043 124.176 38.6786 119.137 33.3036L118.408 33.9875L117.678 34.6714C122.258 39.5564 124.525 47.5328 124.932 55.03C125.135 58.7591 124.874 62.31 124.238 65.2192C123.593 68.1708 122.596 70.3036 121.455 71.3694L122.137 72.1003ZM72.56 94.7093L72.3913 95.695C80.6044 97.1005 87.3098 95.7398 96.408 91.3018L95.9696 90.403L95.5312 89.5042C86.6942 93.8148 80.4182 95.0396 72.7286 93.7237L72.56 94.7093ZM105.809 84.3308L106.421 85.1221C111.263 81.3804 115.511 77.2041 117.256 73.741L116.362 73.2911L115.469 72.8413C113.941 75.8763 110.008 79.8226 105.198 83.5395L105.809 84.3308ZM95.9696 90.403L96.408 91.3018C96.4989 91.2574 96.6417 91.229 96.9454 91.3101C97.2739 91.3978 97.6305 91.5666 98.1236 91.7939C98.9581 92.1787 100.358 92.8504 101.77 92.1717L101.337 91.2704L100.903 90.3691C100.467 90.5788 99.9597 90.4381 98.961 89.9777C98.5375 89.7824 97.9959 89.5205 97.4613 89.3777C96.9019 89.2284 96.2166 89.1698 95.5312 89.5042L95.9696 90.403ZM101.337 91.2704L101.77 92.1717C102.51 91.8159 103.045 91.1612 103.451 90.5201C103.864 89.8664 104.22 89.0971 104.544 88.3791C104.878 87.6357 105.179 86.9461 105.506 86.3469C105.839 85.7384 106.14 85.3388 106.421 85.1221L105.809 84.3308L105.198 83.5395C104.583 84.0148 104.121 84.7116 103.751 85.3877C103.376 86.0731 103.036 86.8564 102.72 87.5578C102.393 88.2847 102.088 88.9323 101.76 89.4513C101.424 89.9829 101.137 90.2567 100.903 90.3691L101.337 91.2704ZM62.6815 83.4701L61.7257 83.7639C61.814 84.0513 61.9047 84.3352 61.9977 84.6151L62.9467 84.2999L63.8957 83.9846C63.8076 83.7193 63.7214 83.4497 63.6374 83.1763L62.6815 83.4701ZM58.248 87.7723L58.9444 88.4899L63.3779 84.1878L62.6815 83.4701L61.9851 82.7524L57.5516 87.0546L58.248 87.7723ZM28.6514 103.386L27.6796 103.622C29.1636 109.739 31.0415 120.741 33.1412 133.167L34.1272 133.001L35.1132 132.834C33.0197 120.444 31.1282 109.354 29.6232 103.151L28.6514 103.386ZM34.1272 133.001L33.1525 133.224C35.0599 141.53 36.3695 145.603 38.6959 148.308L39.4542 147.657L40.2124 147.005C38.2642 144.739 37.0324 141.184 35.1018 132.777L34.1272 133.001ZM60.037 115.5L60.6252 114.691C58.8565 113.405 56.9392 112.715 54.8569 112.76C52.7884 112.803 50.6557 113.569 48.4376 115.016C44.0323 117.891 39.0824 123.595 33.2902 132.453L34.1272 133.001L34.9641 133.548C40.7282 124.732 45.4911 119.327 49.5306 116.691C51.5349 115.383 53.3075 114.793 54.8994 114.759C56.4774 114.726 57.9753 115.237 59.4488 116.309L60.037 115.5ZM67 123L67.8123 122.417C65.2718 118.879 63.2915 116.63 60.6252 114.691L60.037 115.5L59.4488 116.309C61.8676 118.068 63.7025 120.123 66.1877 123.583L67 123ZM73.529 144.672L74.5286 144.644C74.3535 138.448 73.8116 134.437 72.7233 131.182C71.6306 127.914 70.0074 125.474 67.8123 122.417L67 123L66.1877 123.583C68.3688 126.62 69.8359 128.854 70.8265 131.817C71.8217 134.793 72.3562 138.572 72.5294 144.701L73.529 144.672ZM73.529 144.672L73.7397 145.65C75.478 145.275 77.5118 145.014 79.5055 144.719C81.451 144.432 83.3939 144.11 84.7951 143.601L84.4537 142.661L84.1123 141.721C82.9338 142.149 81.1949 142.448 79.2134 142.741C77.2799 143.026 75.1412 143.302 73.3184 143.695L73.529 144.672ZM97.0733 132.036L98.023 131.723C97.8157 131.094 96.083 127.07 93.7361 122.929C92.5575 120.85 91.205 118.707 89.7891 116.926C88.3967 115.175 86.8492 113.653 85.2537 112.975L84.8628 113.895L84.4719 114.816C85.5856 115.289 86.8744 116.474 88.2237 118.171C89.5495 119.838 90.844 121.883 91.9961 123.916C94.3106 127.999 95.9739 131.895 96.1236 132.349L97.0733 132.036ZM57.3517 147.657L57.503 148.645C63.2264 147.769 65.6654 147.39 73.7397 145.65L73.529 144.672L73.3184 143.695C65.2917 145.425 62.8933 145.797 57.2004 146.668L57.3517 147.657ZM96.2488 150.234C95.7183 149.386 95.7189 149.386 95.7196 149.386C95.7198 149.386 95.7204 149.385 95.7209 149.385C95.7217 149.384 95.7225 149.384 95.7233 149.383C95.7249 149.382 95.7263 149.381 95.7277 149.381C95.7304 149.379 95.7327 149.378 95.7346 149.376C95.7383 149.374 95.7403 149.373 95.7404 149.373C95.7405 149.373 95.7332 149.377 95.7171 149.385C95.6849 149.402 95.6188 149.434 95.5093 149.48C95.2897 149.572 94.9018 149.72 94.2727 149.911C93.013 150.295 90.8096 150.85 87.0943 151.504L87.2676 152.489L87.4409 153.474C91.208 152.811 93.4952 152.239 94.8556 151.824C95.5365 151.617 95.9909 151.447 96.2862 151.323C96.4341 151.26 96.5435 151.209 96.6225 151.169C96.662 151.149 96.6942 151.131 96.7199 151.117C96.7328 151.11 96.7441 151.103 96.754 151.097C96.7589 151.094 96.7635 151.092 96.7677 151.089C96.7698 151.088 96.7719 151.086 96.7738 151.085C96.7748 151.085 96.7757 151.084 96.7767 151.083C96.7771 151.083 96.7778 151.083 96.778 151.083C96.7787 151.082 96.7794 151.082 96.2488 150.234ZM94.6528 164.526L95.6466 164.637L97.2426 150.345L96.2488 150.234L95.255 150.123L93.6589 164.415L94.6528 164.526ZM84.4537 142.661L84.7951 143.601C87.586 142.587 88.6462 141.117 90.9793 139.221L90.3486 138.445L89.7179 137.668C87.0318 139.851 86.4807 140.861 84.1123 141.721L84.4537 142.661ZM97.0733 132.036L96.0753 132.099C96.1459 133.211 95.5388 133.978 94.2508 134.835C93.6027 135.265 92.8775 135.657 92.0728 136.118C91.2925 136.564 90.461 137.065 89.7179 137.668L90.3486 138.445L90.9793 139.221C91.5882 138.726 92.2996 138.293 93.0668 137.853C93.8096 137.428 94.6363 136.98 95.3579 136.5C96.8092 135.535 98.2125 134.197 98.0713 131.973L97.0733 132.036ZM97.0733 132.036L97.1964 133.028C97.7781 132.956 98.1639 133.091 98.4536 133.319C98.7699 133.568 99.0641 134.003 99.2894 134.677C99.7452 136.04 99.8102 138.049 99.5416 140.238C99.2758 142.404 98.6984 144.625 97.9717 146.36C97.6078 147.229 97.2193 147.944 96.8352 148.463C96.4348 149.004 96.1179 149.224 95.9337 149.285L96.2488 150.234L96.564 151.183C97.3254 150.93 97.9481 150.321 98.4425 149.653C98.953 148.964 99.4142 148.093 99.8163 147.133C100.622 145.211 101.241 142.809 101.527 140.481C101.81 138.176 101.78 135.82 101.186 134.043C100.886 133.147 100.417 132.319 99.6909 131.747C98.9388 131.155 98.0049 130.913 96.9501 131.044L97.0733 132.036ZM84.8628 113.895L85.2537 112.975C82.2783 111.711 79.7261 111.405 77.4878 111.822C75.2512 112.237 73.431 113.355 71.8869 114.76L72.56 115.5L73.233 116.239C74.5876 115.007 76.0818 114.117 77.8534 113.788C79.6234 113.459 81.7733 113.67 84.4719 114.816L84.8628 113.895ZM72.56 115.5L71.8869 114.76C70.9161 115.644 69.8322 117.223 68.8674 118.664C67.8493 120.185 66.9488 121.574 66.2621 122.325L67 123L67.7379 123.675C68.557 122.779 69.5747 121.203 70.5293 119.777C71.5371 118.272 72.4803 116.924 73.233 116.239L72.56 115.5ZM58.248 87.7723L57.7071 88.6134C59.4465 89.7318 60.7096 91.4293 61.7431 93.5615C62.7815 95.7041 63.5522 98.2067 64.3551 100.885C65.933 106.149 67.6211 112.111 71.8645 116.218L72.56 115.5L73.2554 114.781C69.4594 111.107 67.8898 105.712 66.2709 100.311C65.4753 97.6568 64.6627 94.9998 63.5428 92.6893C62.418 90.3684 60.9478 88.3193 58.7888 86.9312L58.248 87.7723ZM61.6135 78.2277L60.6195 78.337C60.82 80.1615 61.1783 81.983 61.7257 83.7639L62.6815 83.4701L63.6374 83.1763C63.1304 81.527 62.7957 79.8301 62.6075 78.1184L61.6135 78.2277ZM73.529 164.526V165.526H94.6528V164.526V163.526H73.529V164.526ZM73.529 158.195H72.529V164.526H73.529H74.529V158.195H73.529ZM87.2676 152.489L87.0943 151.504C85.2357 151.831 82.2541 153.085 79.5636 154.306C76.7782 155.569 74.282 156.807 73.1513 157.269L73.529 158.195L73.9068 159.12C75.0716 158.645 77.7349 157.331 80.3899 156.127C83.14 154.879 85.8799 153.749 87.4409 153.474L87.2676 152.489ZM73.529 158.195L73.1513 157.269C69.6675 158.69 65.8653 159.864 60.9584 161.643L61.2993 162.583L61.6402 163.524C66.4164 161.792 70.386 160.557 73.9068 159.12L73.529 158.195ZM79.0487 23.523L78.6649 22.5996C69.1619 26.5491 62.578 33.6157 58.5704 43.6798L59.4994 44.0498L60.4285 44.4197C64.2577 34.8034 70.4777 28.1681 79.4325 24.4464L79.0487 23.523ZM59.4994 44.0498L58.5704 43.6798C56.9473 47.7557 53.6806 55.2975 56.3134 68.6426L57.2945 68.4491L58.2756 68.2555C55.753 55.4692 58.8594 48.36 60.4285 44.4197L59.4994 44.0498ZM63.6155 61.7462L62.862 61.0887C60.5866 63.6963 58.5391 65.8297 56.5947 67.7348L57.2945 68.4491L57.9943 69.1634C59.9728 67.2251 62.0564 65.0538 64.369 62.4036L63.6155 61.7462ZM57.2945 68.4491L56.5947 67.7348C53.2346 71.0266 50.2532 73.573 46.8288 76.7944L47.514 77.5228L48.1992 78.2512C51.5161 75.1308 54.6395 72.4502 57.9943 69.1634L57.2945 68.4491ZM55.8721 164.526L55.5135 163.593C51.4663 165.148 42.7981 167.887 37.4894 168.877L37.6727 169.86L37.8561 170.843C43.3237 169.823 52.1145 167.041 56.2307 165.46L55.8721 164.526ZM61.2993 162.583L60.9584 161.643C58.8815 162.396 57.7001 162.696 55.4927 163.601L55.8721 164.526L56.2515 165.452C58.4346 164.556 59.3785 164.344 61.6402 163.524L61.2993 162.583ZM73.529 164.526V163.526H55.8721V164.526V165.526H73.529V164.526ZM90.3486 78.8327L89.83 77.9776C87.634 79.3095 85.9953 80.5808 85.1247 81.7089C84.6978 82.262 84.3425 82.9244 84.3627 83.6363C84.386 84.4539 84.8843 85.0372 85.5283 85.3817L86 84.5L86.4717 83.6183C86.3634 83.5603 86.3392 83.5226 86.3438 83.5291C86.3465 83.5328 86.3523 83.5425 86.3569 83.5564C86.359 83.5628 86.3604 83.5685 86.3611 83.573C86.3619 83.5775 86.362 83.5798 86.3619 83.5794C86.3613 83.5569 86.3823 83.3529 86.7081 82.9308C87.3428 82.1083 88.7146 80.9932 90.8672 79.6877L90.3486 78.8327ZM86 84.5L85.5283 85.3817C86.3621 85.8278 87.2225 86.0168 88.054 85.8368C88.8913 85.6556 89.5452 85.1337 90.0239 84.4584C90.9469 83.1563 91.3486 81.1162 91.3486 78.8327H90.3486H89.3486C89.3486 80.9778 88.9544 82.5088 88.3922 83.3019C88.1283 83.6742 87.8674 83.8309 87.631 83.8821C87.3887 83.9345 87.0163 83.9096 86.4717 83.6183L86 84.5ZM39.4542 147.657L38.6959 148.308C39.1389 148.824 39.8279 149.124 40.4947 149.32C41.1965 149.526 42.0438 149.663 42.9699 149.749C44.8262 149.92 47.1246 149.895 49.481 149.723L49.4085 148.726L49.3359 147.729C47.0439 147.895 44.8634 147.915 43.1539 147.757C42.2971 147.678 41.5897 147.557 41.0579 147.401C40.4911 147.234 40.2677 147.069 40.2124 147.005L39.4542 147.657ZM49.4085 148.726L49.481 149.723C52.1477 149.53 54.2456 149.144 57.503 148.645L57.3517 147.657L57.2004 146.668C53.879 147.177 51.8993 147.542 49.3359 147.729L49.4085 148.726ZM51 140.5H50C50 141.897 49.8259 143.552 49.5459 145.021C49.2571 146.535 48.8853 147.688 48.5659 148.187L49.4085 148.726L50.251 149.265C50.7955 148.413 51.2195 146.922 51.5105 145.395C51.8103 143.823 52 142.041 52 140.5H51ZM84.4537 142.661L83.5929 142.152C82.2017 144.505 82.4919 146.913 83.3356 148.866C84.1693 150.796 85.5733 152.374 86.6254 153.255L87.2676 152.489L87.9098 151.722C87.0394 150.993 85.855 149.655 85.1716 148.073C84.4982 146.514 84.3428 144.813 85.3145 143.17L84.4537 142.661Z" fill="#716A5F"/>
</svg>
