<svg width="223" height="171" viewBox="0 0 223 171" fill="none" xmlns="http://www.w3.org/2000/svg">
<path d="M45.2591 91.5425C44.0335 98.1629 36.8119 94.3842 29.9684 87.9854C26.0696 90.0174 16.7198 95.454 15.1346 110.306C14.4406 116.808 13.4205 123.419 12.5157 130.082C17.0478 130.082 23.3124 131.739 25.8782 132.567C23.0853 142.378 21.7386 151.079 23.0853 155.206C25.0554 161.243 28.7782 167.961 29.1778 170H38.01H52.1852H59.2596C59.2596 154.897 61.9251 139.359 61.5443 128.794C61.4006 124.808 61.5443 116.343 60.6431 110.306C60.6431 110.306 68.2441 108.474 76.3948 103.793C75.6498 96.4586 73.8156 94.3828 70.683 90.476C64.595 93.0257 61.1086 93.7584 56.7546 92.9495C52.3891 92.1384 48.1749 90.8516 45.2591 91.5425Z" fill="#FFA616"/>
<path d="M220.47 153.069C220.936 140.51 221.49 125.582 218.702 116.737C216.596 110.056 212.913 106.418 208.136 104.454C206.517 105.521 204.592 105.553 202.718 103.619C202.718 103.619 201.418 105.325 200.392 105.93C198.67 106.947 196.154 107.122 193.373 106.134C191.827 105.584 191.04 104.588 190.716 103.252C190.605 102.797 190.524 102.39 190.471 101.995C190.392 102.036 190.312 102.076 190.231 102.118L190.225 102.121C187.182 103.669 182.696 105.952 175.641 101.418C174.885 101.972 173.045 103.186 170.261 102.772C170.261 102.772 163.406 102.772 159.685 108.327C157.62 111.409 155.583 115.197 153.635 118.82C150.013 125.556 146.697 131.722 144.082 131.722C141.103 131.722 133.417 126.954 125.843 117.946C126.486 120.093 122.359 122.766 120.214 123.834C130.603 136.966 138.855 146.94 144.886 146.94C151.265 146.94 155.895 138.455 160.443 130.12C160.898 129.286 161.353 128.454 161.808 127.631C160.919 133.15 162.388 138.999 163.995 145.398C165.844 152.761 167.876 160.851 166.707 170H207.716H220.331C219.993 165.93 220.219 159.844 220.47 153.069Z" fill="#DEEFF0"/>
<path d="M45.2591 91.5425C44.0335 98.1629 36.8119 94.3842 29.9684 87.9854M45.2591 91.5425C48.1749 90.8516 52.3891 92.1384 56.7546 92.9495C61.1086 93.7584 64.595 93.0257 70.683 90.476M45.2591 91.5425C45.1472 91.3292 45.0237 91.0982 44.8919 90.8516C43.5803 88.3988 41.4481 84.4111 41.8179 81.059C46.802 83.6139 49.844 84.9538 52.0162 85.2884C54.0717 85.605 55.3483 85.0214 56.7546 83.7153C60.5678 80.1736 64.381 70.434 64.381 68.6632C64.381 67.8672 64.9589 67.6079 65.595 67.3224C66.2889 67.011 67.0522 66.6685 67.211 65.5645M29.9684 87.9854C26.0696 90.0174 16.7198 95.4541 15.1346 110.306C14.4406 116.808 13.4205 123.419 12.5157 130.082M29.9684 87.9854C29.9684 82.7431 29.5819 81.3049 29.2191 79.9542C29.0916 79.4799 28.9671 79.0164 28.8632 78.4028M12.5157 130.082C17.0478 130.082 23.3124 131.739 25.8782 132.567M12.5157 130.082C11.4354 138.037 10.5195 146.066 10.5195 154.074C10.5195 157.093 12.0427 160.111 18.1809 170H29.1778M25.8782 132.567C23.0853 142.378 21.7386 151.079 23.0853 155.206C25.0554 161.243 28.7782 167.961 29.1778 170M25.8782 132.567C27.6547 128.04 30.0041 116.471 29.6248 111.815M29.1778 170H38.01H52.1852H59.2596C59.2596 154.897 61.9251 139.359 61.5443 128.794C61.4006 124.808 61.5443 116.343 60.6431 110.306M60.6431 110.306C60.6431 110.306 68.2441 108.474 76.3948 103.793M60.6431 110.306L59.0447 103.137M76.3948 103.793C75.6499 96.4586 73.8156 94.3828 70.683 90.476M76.3948 103.793C82.9935 100.003 89.9524 95.3351 93.5299 90.8516C98.2708 84.9102 77.8699 68.0061 66.3195 48.0431M70.683 90.476C73.1139 89.4579 75.9597 88.1502 79.441 86.5351C82.0455 84.5996 74.7111 78.9891 67.211 65.5645M207.716 170H220.331C219.993 165.93 220.219 159.844 220.47 153.069C220.936 140.51 221.49 125.582 218.702 116.737C216.596 110.056 212.913 106.418 208.136 104.454M207.716 170H166.707C167.876 160.851 165.844 152.761 163.995 145.398C162.388 138.999 160.919 133.15 161.808 127.631M207.716 170C208.866 153.281 206.568 141.889 204.856 125.147M161.808 127.631C161.353 128.454 160.898 129.286 160.443 130.12C155.895 138.455 151.265 146.94 144.886 146.94C138.855 146.94 130.603 136.966 120.214 123.834M161.808 127.631C162.359 124.211 163.815 120.985 166.707 117.938M120.214 123.834C122.359 122.766 126.486 120.093 125.843 117.946M120.214 123.834C117.336 120.195 110.834 122.949 106.01 121.348C92.7265 116.936 95.9026 113.263 109.629 116.141C117.269 117.743 119.612 110.535 125.843 117.946M125.843 117.946C133.417 126.954 141.103 131.722 144.082 131.722C146.697 131.722 150.013 125.556 153.635 118.82C155.583 115.197 157.62 111.409 159.685 108.327C163.406 102.772 170.261 102.772 170.261 102.772M170.261 102.772C173.045 103.186 174.885 101.972 175.641 101.418M170.261 102.772C167.86 102.415 166.058 100.369 164.139 98.3876C158.621 100.391 154.377 99.6628 153.635 94.604C153.356 92.7081 153.633 87.1618 153.935 84.9449C154.843 78.2951 157.063 68.4689 159.365 60.6406C160.828 55.6626 162.335 51.4162 163.582 49.1348C163.67 48.9729 163.759 48.812 163.85 48.6522C165.329 46.0346 167.066 43.7181 169.689 41.9031C172.707 39.8148 176.898 38.3906 183.219 37.9358C187.816 37.6051 192.478 39.3199 196.57 41.9993C203.294 46.4013 208.482 53.4068 209.32 58.2227C209.552 59.5595 210.006 61.1139 210.607 62.7918C210.761 63.2231 210.926 63.6627 211.098 64.1088C213.22 69.5892 213.809 71.9158 216.171 76.4086L218.987 80.5534C220.019 82.5156 221.607 83.9583 221.938 87.6696C222.268 91.3809 221.32 93.7796 218.297 96.5008C216.987 97.6802 214.229 97.7039 212.086 97.4134C211.711 100.165 210.162 103.119 208.136 104.454M175.641 101.418C182.696 105.952 187.182 103.669 190.225 102.121M175.641 101.418C177.943 99.7308 179.114 96.8412 175.771 92.4894M190.225 102.121L190.231 102.118M190.225 102.121C190.227 102.12 190.229 102.119 190.231 102.118M175.771 92.4894C172.143 91.4103 168.737 88.9704 165.95 85.1211C161.901 79.5293 159.714 51.4966 176.082 46.1516C176.602 46.9896 177.206 47.9903 177.879 49.1051C182.732 57.147 191.172 71.1323 197.692 72.9021C197.692 72.9021 205.297 69.9993 204.283 77.4262C203.472 83.3677 199.303 84.6006 196.153 84.1735C194.819 85.9097 193.379 87.3984 191.868 88.6354M175.771 92.4894C181.08 94.0689 186.863 92.7333 191.868 88.6354M191.868 88.6354C191.89 91.6815 191.343 94.6504 190.851 97.3167C190.432 99.587 190.304 100.734 190.471 101.995M137.668 74.893C137.668 74.893 131.656 70.0439 130.029 70.6799M137.668 74.893L130.029 70.6799M137.668 74.893C137.668 74.893 136.794 66.1613 137.668 64.9451C139.201 62.8101 140.08 60.325 140.08 57.6726C140.08 49.7103 132.16 43.2556 122.39 43.2556C112.62 43.2556 104.699 49.7103 104.699 57.6726C104.699 65.6349 112.62 72.0897 122.39 72.0897C125.126 72.0897 127.716 71.5835 130.029 70.6799M84.2226 32.6374C84.2226 32.6374 90.2341 27.7884 91.8617 28.4244M84.2226 32.6374L91.8617 28.4244M84.2226 32.6374C84.2226 32.6374 85.0962 23.9058 84.2226 22.6895C82.6892 20.5546 81.8103 18.0695 81.8103 15.417C81.8103 7.45473 89.7306 1 99.5008 1C109.271 1 117.191 7.45473 117.191 15.417C117.191 23.3794 109.271 29.8341 99.5008 29.8341C96.7649 29.8341 94.1741 29.328 91.8617 28.4244M62.25 52.7257C61.6107 49.559 60.9443 45.9696 60.5678 43.8715C55.2293 45.9965 50.0815 46.5278 48.1749 46.5278C44.3617 53.6111 37.0531 59.5139 33.8754 61.5798C28.1556 58.0382 22.4359 59.809 21.4826 63.3507C20.5293 66.8923 22.7541 74.8611 30.0622 74.8611C30.0622 76.2678 29.581 77.4957 28.8632 78.4028M62.25 52.7257C64.4136 52.1919 65.7825 50.0489 66.3195 48.0431M62.25 52.7257C62.4553 53.7428 62.6579 54.7164 62.8471 55.5828C63.0632 56.5725 63.262 57.4224 63.4277 58.0382C63.8925 59.7649 64.8104 60.8602 65.6292 61.8372C66.4899 62.8641 67.2409 63.7603 67.2409 65.1215C67.2409 65.2816 67.2305 65.4288 67.211 65.5645M28.8632 78.4028C27.3219 80.3504 24.6899 80.8191 23.3892 78.4028C22.6757 78.4028 21.9907 78.3764 21.3334 78.3259C15.9171 77.9101 12.3821 75.8618 10.3214 73.504C8.28817 71.1776 7.69015 68.55 8.13635 66.8923C3.36985 65.1215 -1.39668 61.5798 4.32312 58.0382C0.551215 57.1623 0.560326 51.7375 1.58272 48.2345C2.9496 45.3756 4.62566 42.5581 7.38161 41.8267C4.33106 38.9934 8.13635 37.9687 10.0429 37.6736C10.2024 36.9329 10.377 36.2232 10.5652 35.5433C11.5394 32.0255 12.8819 29.3077 14.4187 27.2374C19.6852 20.1424 27.2339 20.6513 30.0622 22.6215C39.5952 17.309 47.2216 21.7361 50.0815 24.3923C52.3694 22.2673 52.9414 24.0972 52.9414 25.2778C66.2876 26.1632 68.1942 37.6736 66.2876 44.7569C66.6662 45.4601 66.6733 46.7219 66.3195 48.0431M190.471 101.995C190.524 102.39 190.605 102.797 190.716 103.252C191.04 104.588 191.827 105.584 193.373 106.134C196.154 107.122 198.67 106.947 200.392 105.93C201.418 105.325 202.718 103.619 202.718 103.619C204.592 105.553 206.517 105.521 208.136 104.454M190.471 101.995C190.392 102.036 190.312 102.076 190.231 102.118" stroke="#716A5F" stroke-width="2" stroke-linecap="round" stroke-linejoin="round"/>
</svg>
