<svg width="64" height="56" viewBox="0 0 64 56" fill="none" xmlns="http://www.w3.org/2000/svg">
<path d="M58.2271 40.5398C57.599 40.5398 57.0073 40.2447 56.6294 39.7429L49.0789 29.7166C48.7856 29.3271 48.3263 29.098 47.8388 29.098V29.098C46.9814 29.098 46.2864 29.7931 46.2864 30.6504V38.5398C46.2864 39.6444 45.3909 40.5398 44.2864 40.5398H43.5435C42.4389 40.5398 41.5435 39.6444 41.5435 38.5398V16.358C41.5435 15.2534 42.4389 14.358 43.5435 14.358H44.2864C45.3909 14.358 46.2864 15.2534 46.2864 16.358V24.3064C46.2864 24.7569 46.6516 25.1222 47.1022 25.1222V25.1222C47.3391 25.1222 47.5643 25.0192 47.7193 24.8399L56.1839 15.0499C56.5638 14.6105 57.1159 14.358 57.6968 14.358H58.2462C59.9597 14.358 60.8798 16.3721 59.7579 17.6674L53.3433 25.0731C52.7247 25.7873 52.6903 26.8371 53.2609 27.5903L60.6416 37.332C61.6395 38.6492 60.7 40.5398 59.0474 40.5398H58.2271Z" fill="#FFA616"/>
<path d="M37.0597 27.4489C37.0597 30.2699 36.5313 32.6861 35.4744 34.6974C34.4261 36.7003 32.9943 38.2344 31.179 39.2997C29.3722 40.3651 27.3224 40.8977 25.0298 40.8977C22.7372 40.8977 20.6832 40.3651 18.8679 39.2997C17.0611 38.2259 15.6293 36.6875 14.5724 34.6847C13.5241 32.6733 13 30.2614 13 27.4489C13 24.6278 13.5241 22.2159 14.5724 20.2131C15.6293 18.2017 17.0611 16.6634 18.8679 15.598C20.6832 14.5327 22.7372 14 25.0298 14C27.3224 14 29.3722 14.5327 31.179 15.598C32.9943 16.6634 34.4261 18.2017 35.4744 20.2131C36.5313 22.2159 37.0597 24.6278 37.0597 27.4489ZM32.2912 27.4489C32.2912 25.4631 31.9801 23.7884 31.358 22.4247C30.7443 21.0526 29.892 20.017 28.8011 19.3182C27.7102 18.6108 26.4531 18.2571 25.0298 18.2571C23.6065 18.2571 22.3494 18.6108 21.2585 19.3182C20.1676 20.017 19.3111 21.0526 18.6889 22.4247C18.0753 23.7884 17.7685 25.4631 17.7685 27.4489C17.7685 29.4347 18.0753 31.1136 18.6889 32.4858C19.3111 33.8494 20.1676 34.8849 21.2585 35.5923C22.3494 36.2912 23.6065 36.6406 25.0298 36.6406C26.4531 36.6406 27.7102 36.2912 28.8011 35.5923C29.892 34.8849 30.7443 33.8494 31.358 32.4858C31.9801 31.1136 32.2912 29.4347 32.2912 27.4489Z" fill="#FFA616"/>
<path d="M25 9V2" stroke="#FFA616" stroke-width="4" stroke-linecap="round"/>
<path d="M8.34415 22.9583L2 20" stroke="#FFA616" stroke-width="4" stroke-linecap="round"/>
<path d="M8.34415 33L2 35.9583" stroke="#FFA616" stroke-width="4" stroke-linecap="round"/>
<path d="M35.625 13.25L40.4062 7.0625" stroke="#FFA616" stroke-width="4" stroke-linecap="round"/>
<path d="M14.7812 13.1875L10 7" stroke="#FFA616" stroke-width="4" stroke-linecap="round"/>
<path d="M25 46.25V53.25" stroke="#FFA616" stroke-width="4" stroke-linecap="round"/>
<path d="M35.625 42L40.4062 48.1875" stroke="#FFA616" stroke-width="4" stroke-linecap="round"/>
<path d="M14.7812 42.0625L10 48.25" stroke="#FFA616" stroke-width="4" stroke-linecap="round"/>
</svg>
