<svg width="121" height="40" viewBox="0 0 121 40" fill="none" xmlns="http://www.w3.org/2000/svg">
<path d="M79.7487 14.1022C80.1485 14.1022 80.4726 14.4263 80.4726 14.8262V24.853C80.4726 25.2529 80.1485 25.577 79.7487 25.577H79.224C78.8242 25.577 78.5001 25.2529 78.5001 24.853V14.8262C78.5001 14.4263 78.8242 14.1022 79.224 14.1022H79.7487ZM83.5983 14.1022C83.9982 14.1022 84.3223 14.4263 84.3223 14.8262V14.969C84.3223 15.3688 83.9982 15.693 83.5983 15.693H75.4486C75.0487 15.693 74.7246 15.3688 74.7246 14.969V14.8262C74.7246 14.4263 75.0487 14.1022 75.4486 14.1022H83.5983Z" fill="#FFA616"/>
<path d="M69.0186 24.1771C69.4852 24.1771 69.9165 24.0816 70.3124 23.8907C70.7083 23.6998 71.0336 23.4382 71.2881 23.1059C71.4076 22.9467 71.5029 22.7773 71.5741 22.5977C71.713 22.2473 72.0131 21.95 72.39 21.95H72.8268C73.2414 21.95 73.5788 22.302 73.4657 22.7009C73.3523 23.1011 73.1637 23.4836 72.9001 23.8483C72.483 24.4281 71.935 24.8982 71.2563 25.2588C70.5776 25.6123 69.8317 25.7891 69.0186 25.7891C68.156 25.7891 67.4031 25.6371 66.7597 25.333C66.1234 25.029 65.5931 24.6119 65.1689 24.0816C64.7518 23.5514 64.4371 22.9433 64.225 22.2575C64.02 21.5647 63.9175 20.8329 63.9175 20.0622V19.6168C63.9175 18.8462 64.02 18.118 64.225 17.4322C64.4371 16.7393 64.7518 16.1277 65.1689 15.5975C65.5931 15.0672 66.1234 14.6501 66.7597 14.346C67.4031 14.042 68.156 13.89 69.0186 13.89C69.9165 13.89 70.7013 14.0738 71.3729 14.4415C72.0446 14.8021 72.5713 15.297 72.9531 15.9262C73.2146 16.3446 73.3962 16.8014 73.4978 17.2965C73.5808 17.7006 73.2449 18.0473 72.8324 18.0473H72.3949C72.0159 18.0473 71.7121 17.7501 71.6008 17.3879C71.5332 17.1678 71.4396 16.9599 71.3199 16.764C71.0937 16.3822 70.7826 16.0782 70.3867 15.852C69.9978 15.6187 69.5418 15.502 69.0186 15.502C68.4176 15.502 67.9121 15.6222 67.502 15.8626C67.099 16.0959 66.7774 16.4141 66.537 16.8171C66.3037 17.213 66.134 17.6549 66.0279 18.1427C65.9289 18.6235 65.8794 19.1148 65.8794 19.6168V20.0622C65.8794 20.5642 65.9289 21.0591 66.0279 21.547C66.1269 22.0348 66.293 22.4767 66.5264 22.8726C66.7667 23.2686 67.0884 23.5867 67.4914 23.8271C67.9015 24.0604 68.4106 24.1771 69.0186 24.1771Z" fill="#FFA616"/>
<path d="M51.52 19.9668V19.7229C51.52 18.8957 51.6402 18.1286 51.8806 17.4216C52.121 16.7075 52.4674 16.0888 52.9199 15.5656C53.3724 15.0354 53.9203 14.6253 54.5637 14.3354C55.2071 14.0385 55.9283 13.89 56.7272 13.89C57.5332 13.89 58.2579 14.0385 58.9012 14.3354C59.5517 14.6253 60.1032 15.0354 60.5557 15.5656C61.0152 16.0888 61.3652 16.7075 61.6056 17.4216C61.846 18.1286 61.9662 18.8957 61.9662 19.7229V19.9668C61.9662 20.794 61.846 21.5611 61.6056 22.2681C61.3652 22.9751 61.0152 23.5938 60.5557 24.124C60.1032 24.6472 59.5552 25.0573 58.9119 25.3542C58.2755 25.6441 57.5544 25.7891 56.7484 25.7891C55.9424 25.7891 55.2177 25.6441 54.5743 25.3542C53.9309 25.0573 53.3795 24.6472 52.9199 24.124C52.4674 23.5938 52.121 22.9751 51.8806 22.2681C51.6402 21.5611 51.52 20.794 51.52 19.9668ZM53.482 19.7229V19.9668C53.482 20.5395 53.5491 21.0803 53.6835 21.5894C53.8178 22.0914 54.0193 22.5368 54.288 22.9257C54.5637 23.3145 54.9066 23.6221 55.3167 23.8483C55.7268 24.0675 56.204 24.1771 56.7484 24.1771C57.2857 24.1771 57.7559 24.0675 58.1589 23.8483C58.5689 23.6221 58.9083 23.3145 59.177 22.9257C59.4456 22.5368 59.6471 22.0914 59.7815 21.5894C59.9229 21.0803 59.9936 20.5395 59.9936 19.9668V19.7229C59.9936 19.1573 59.9229 18.6235 59.7815 18.1215C59.6471 17.6124 59.4421 17.1635 59.1664 16.7746C58.8977 16.3787 58.5583 16.0676 58.1483 15.8414C57.7453 15.6151 57.2716 15.502 56.7272 15.502C56.1898 15.502 55.7161 15.6151 55.3061 15.8414C54.9031 16.0676 54.5637 16.3787 54.288 16.7746C54.0193 17.1635 53.8178 17.6124 53.6835 18.1215C53.5491 18.6235 53.482 19.1573 53.482 19.7229Z" fill="#FFA616"/>
<path d="M41.8056 16.308V29.2647C41.8056 29.6646 41.4814 29.9887 41.0816 29.9887H40.557C40.1571 29.9887 39.833 29.6646 39.833 29.2647V14.8261C39.833 14.4263 40.1571 14.1021 40.557 14.1021H40.9655C41.3438 14.1021 41.6583 14.3934 41.6873 14.7706L41.8056 16.308ZM49.5368 19.7441V19.9668C49.5368 20.8011 49.4378 21.5753 49.2398 22.2893C49.0419 22.9964 48.752 23.6115 48.3702 24.1346C47.9955 24.6578 47.5324 25.0644 46.9809 25.3542C46.4294 25.6441 45.7967 25.7891 45.0826 25.7891C44.3544 25.7891 43.711 25.6689 43.1524 25.4285C42.5939 25.1881 42.1202 24.8381 41.7313 24.3786C41.3425 23.919 41.0314 23.3675 40.7981 22.7242C40.5718 22.0808 40.4163 21.3561 40.3315 20.5501V19.3623C40.4163 18.5139 40.5754 17.7538 40.8087 17.0822C41.042 16.4105 41.3496 15.8378 41.7313 15.3641C42.1202 14.8834 42.5904 14.5193 43.1418 14.2718C43.6933 14.0173 44.3296 13.89 45.0508 13.89C45.7719 13.89 46.4118 14.0314 46.9703 14.3142C47.5289 14.59 47.999 14.9859 48.3808 15.502C48.7626 16.0181 49.0489 16.6368 49.2398 17.3579C49.4378 18.072 49.5368 18.8674 49.5368 19.7441ZM47.5642 19.9668V19.7441C47.5642 19.1714 47.5041 18.6341 47.3839 18.1321C47.2637 17.623 47.0764 17.1776 46.8218 16.7958C46.5744 16.407 46.2562 16.103 45.8674 15.8838C45.4785 15.6575 45.0154 15.5444 44.4781 15.5444C43.9832 15.5444 43.5519 15.6293 43.1843 15.799C42.8237 15.9686 42.5161 16.1984 42.2616 16.4883C42.0071 16.7711 41.7985 17.0963 41.6359 17.464C41.4897 17.8028 41.3779 18.1541 41.3004 18.5179C41.2905 18.5645 41.2859 18.6121 41.2859 18.6598V21.2335C41.2859 21.3007 41.295 21.3678 41.3146 21.4321C41.4536 21.891 41.642 22.3252 41.8798 22.7348C42.1343 23.166 42.4737 23.516 42.8979 23.7847C43.3221 24.0463 43.8559 24.1771 44.4993 24.1771C45.0296 24.1771 45.4856 24.0675 45.8674 23.8483C46.2562 23.6221 46.5744 23.3145 46.8218 22.9257C47.0764 22.5368 47.2637 22.0914 47.3839 21.5894C47.5041 21.0803 47.5642 20.5395 47.5642 19.9668Z" fill="#FFA616"/>
<path d="M28.7743 14.7958C28.7906 14.4081 29.1097 14.1022 29.4977 14.1022H30.0123C30.4233 14.1022 30.7519 14.444 30.7357 14.8547L30.5957 18.3973C30.5533 19.4861 30.4296 20.4264 30.2246 21.2183C30.0195 22.0101 29.7579 22.6853 29.4398 23.2439C29.1216 23.7953 28.7646 24.2584 28.3687 24.6331C28.0335 24.9562 27.6877 25.2345 27.3315 25.4682C27.2203 25.5412 27.0893 25.577 26.9562 25.577H26.9323C26.5231 25.577 26.1952 25.2381 26.2087 24.8291L26.228 24.2487C26.233 24.0953 26.3567 23.9725 26.5102 23.9684V23.9684C26.5928 23.9663 26.6706 23.929 26.7236 23.8656C26.9274 23.6214 27.1258 23.3717 27.3187 23.1166C27.5379 22.8197 27.7394 22.4697 27.9232 22.0667C28.1071 21.6566 28.2591 21.1582 28.3793 20.5714C28.5065 19.9775 28.5878 19.2528 28.6232 18.3973L28.7743 14.7958ZM29.2913 14.8262C29.2913 14.4263 29.6154 14.1022 30.0153 14.1022H35.4713C35.8712 14.1022 36.1953 14.4263 36.1953 14.8262V24.853C36.1953 25.2529 35.8712 25.577 35.4713 25.577H34.9573C34.5575 25.577 34.2333 25.2529 34.2333 24.853V16.6396C34.2333 16.2398 33.9092 15.9157 33.5093 15.9157H30.0153C29.6154 15.9157 29.2913 15.5915 29.2913 15.1917V14.8262ZM25.737 24.6875C25.7379 24.2882 26.0618 23.965 26.461 23.965H36.9454C37.3453 23.965 37.6694 24.2892 37.6694 24.689V28.2361C37.6694 28.6359 37.3453 28.9601 36.9454 28.9601H36.4314C36.0316 28.9601 35.7075 28.6359 35.7075 28.2361V26.301C35.7075 25.9011 35.3833 25.577 34.9835 25.577H28.4245C28.0247 25.577 27.7005 25.9011 27.7005 26.301V28.2361C27.7005 28.6359 27.3764 28.9601 26.9765 28.9601H26.4535C26.053 28.9601 25.7286 28.635 25.7295 28.2346L25.737 24.6875Z" fill="#FFA616"/>
<path d="M14.5928 19.9668V19.7229C14.5928 18.8957 14.713 18.1286 14.9534 17.4216C15.1937 16.7075 15.5402 16.0888 15.9927 15.5656C16.4451 15.0354 16.9931 14.6253 17.6365 14.3354C18.2799 14.0385 19.001 13.89 19.7999 13.89C20.6059 13.89 21.3306 14.0385 21.974 14.3354C22.6245 14.6253 23.1759 15.0354 23.6284 15.5656C24.088 16.0888 24.4379 16.7075 24.6783 17.4216C24.9187 18.1286 25.0389 18.8957 25.0389 19.7229V19.9668C25.0389 20.794 24.9187 21.5611 24.6783 22.2681C24.4379 22.9751 24.088 23.5938 23.6284 24.124C23.1759 24.6472 22.628 25.0573 21.9846 25.3542C21.3483 25.6441 20.6271 25.7891 19.8211 25.7891C19.0151 25.7891 18.2905 25.6441 17.6471 25.3542C17.0037 25.0573 16.4522 24.6472 15.9927 24.124C15.5402 23.5938 15.1937 22.9751 14.9534 22.2681C14.713 21.5611 14.5928 20.794 14.5928 19.9668ZM16.5547 19.7229V19.9668C16.5547 20.5395 16.6219 21.0803 16.7562 21.5894C16.8906 22.0914 17.0921 22.5368 17.3607 22.9257C17.6365 23.3145 17.9794 23.6221 18.3894 23.8483C18.7995 24.0675 19.2767 24.1771 19.8211 24.1771C20.3585 24.1771 20.8286 24.0675 21.2316 23.8483C21.6417 23.6221 21.9811 23.3145 22.2497 22.9257C22.5184 22.5368 22.7199 22.0914 22.8542 21.5894C22.9956 21.0803 23.0663 20.5395 23.0663 19.9668V19.7229C23.0663 19.1573 22.9956 18.6235 22.8542 18.1215C22.7199 17.6124 22.5149 17.1635 22.2391 16.7746C21.9705 16.3787 21.6311 16.0676 21.221 15.8414C20.818 15.6151 20.3443 15.502 19.7999 15.502C19.2626 15.502 18.7889 15.6151 18.3788 15.8414C17.9758 16.0676 17.6365 16.3787 17.3607 16.7746C17.0921 17.1635 16.8906 17.6124 16.7562 18.1215C16.6219 18.6235 16.5547 19.1573 16.5547 19.7229Z" fill="#FFA616"/>
<path d="M10.9736 10.1357C11.3734 10.1357 11.6975 10.4599 11.6975 10.8597V24.8529C11.6975 25.2528 11.3734 25.5769 10.9736 25.5769H10.3853C9.98548 25.5769 9.66135 25.2528 9.66135 24.8529V12.5353C9.66135 12.1355 9.33721 11.8114 8.93736 11.8114H2.77079C2.37094 11.8114 2.04681 12.1355 2.04681 12.5353V24.8529C2.04681 25.2528 1.72267 25.5769 1.32282 25.5769H0.723982C0.324138 25.5769 0 25.2528 0 24.8529V10.8597C0 10.4599 0.324138 10.1357 0.723982 10.1357H10.9736Z" fill="#FFA616"/>
<path d="M118.897 29.3501C118.443 29.3501 118.014 29.1364 117.741 28.7732L112.274 21.5142C112.062 21.2323 111.73 21.0664 111.377 21.0664V21.0664C110.756 21.0664 110.253 21.5696 110.253 22.1904V27.9021C110.253 28.7018 109.604 29.3501 108.805 29.3501H108.267C107.467 29.3501 106.819 28.7018 106.819 27.9021V11.8429C106.819 11.0432 107.467 10.3949 108.267 10.3949H108.805C109.604 10.3949 110.253 11.0432 110.253 11.8429V17.5974C110.253 17.9236 110.517 18.188 110.843 18.188V18.188C111.015 18.188 111.178 18.1134 111.29 17.9837L117.418 10.8958C117.693 10.5777 118.093 10.3949 118.514 10.3949H118.911C120.152 10.3949 120.818 11.8531 120.006 12.7909L115.362 18.1525C114.914 18.6696 114.889 19.4296 115.302 19.9749L120.646 27.0277C121.368 27.9814 120.688 29.3501 119.491 29.3501H118.897Z" fill="#FFDD1D"/>
<path d="M103.573 19.8725C103.573 21.9149 103.19 23.6641 102.425 25.1203C101.666 26.5704 100.629 27.681 99.3151 28.4523C98.007 29.2236 96.523 29.6092 94.8632 29.6092C93.2034 29.6092 91.7163 29.2236 90.4021 28.4523C89.094 27.6748 88.0573 26.5611 87.2922 25.1111C86.5333 23.6549 86.1538 21.9087 86.1538 19.8725C86.1538 17.8301 86.5333 16.0839 87.2922 14.6339C88.0573 13.1777 89.094 12.064 90.4021 11.2927C91.7163 10.5214 93.2034 10.1357 94.8632 10.1357C96.523 10.1357 98.007 10.5214 99.3151 11.2927C100.629 12.064 101.666 13.1777 102.425 14.6339C103.19 16.0839 103.573 17.8301 103.573 19.8725ZM100.12 19.8725C100.12 18.4348 99.8951 17.2223 99.4446 16.2351C99.0004 15.2417 98.3834 14.492 97.5936 13.986C96.8038 13.4739 95.8936 13.2178 94.8632 13.2178C93.8328 13.2178 92.9226 13.4739 92.1328 13.986C91.343 14.492 90.7229 15.2417 90.2725 16.2351C89.8282 17.2223 89.6061 18.4348 89.6061 19.8725C89.6061 21.3102 89.8282 22.5257 90.2725 23.5191C90.7229 24.5064 91.343 25.2561 92.1328 25.7682C92.9226 26.2742 93.8328 26.5272 94.8632 26.5272C95.8936 26.5272 96.8038 26.2742 97.5936 25.7682C98.3834 25.2561 99.0004 24.5064 99.4446 23.5191C99.8951 22.5257 100.12 21.3102 100.12 19.8725Z" fill="#FFDD1D"/>
<path d="M93.394 6.51584V1.44796C93.394 0.648276 94.0423 0 94.842 0C95.6417 0 96.29 0.648276 96.29 1.44796V6.51584C96.29 7.31553 95.6417 7.96381 94.842 7.96381C94.0423 7.96381 93.394 7.31553 93.394 6.51584Z" fill="#FFDD1D"/>
<path d="M101.389 8.7073L104.85 4.22778C105.339 3.595 106.248 3.47842 106.881 3.96739C107.514 4.45635 107.63 5.36571 107.142 5.99849L103.68 10.478C103.191 11.1108 102.282 11.2274 101.649 10.7384C101.016 10.2494 100.9 9.34008 101.389 8.7073Z" fill="#FFDD1D"/>
<path d="M88.5895 8.66213L85.128 4.18262C84.6391 3.54984 83.7297 3.43325 83.0969 3.92222C82.4641 4.41119 82.3476 5.32055 82.8365 5.95333L86.298 10.4328C86.7869 11.0656 87.6963 11.1822 88.3291 10.6932C88.9619 10.2043 89.0784 9.29491 88.5895 8.66213Z" fill="#FFDD1D"/>
<path d="M93.394 33.4842V38.552C93.394 39.3517 94.0423 40 94.842 40C95.6417 40 96.29 39.3517 96.29 38.552V33.4842C96.29 32.6845 95.6417 32.0362 94.842 32.0362C94.0423 32.0362 93.394 32.6845 93.394 33.4842Z" fill="#FFDD1D"/>
<path d="M101.389 31.2928L104.85 35.7723C105.339 36.4051 106.248 36.5217 106.881 36.0327C107.514 35.5438 107.63 34.6344 107.142 34.0016L103.68 29.5221C103.191 28.8893 102.282 28.7727 101.649 29.2617C101.016 29.7507 100.9 30.66 101.389 31.2928Z" fill="#FFDD1D"/>
<path d="M88.5895 31.338L85.128 35.8175C84.6391 36.4503 83.7297 36.5669 83.0969 36.0779C82.4641 35.5889 82.3476 34.6796 82.8365 34.0468L86.298 29.5673C86.7869 28.9345 87.6963 28.8179 88.3291 29.3069C88.9619 29.7959 89.0784 30.7052 88.5895 31.338Z" fill="#FFDD1D"/>
</svg>
