<svg width="217" height="199" viewBox="0 0 217 199" fill="none" xmlns="http://www.w3.org/2000/svg">
<path d="M182.477 169.093C181.06 166.152 174.861 152.862 169.665 152.124C168.56 153.101 159.12 156.33 159.644 152.676C157.427 152.361 152.391 154.625 145.681 154.638C146.796 158.242 145.43 162.418 144.966 164.056C147.163 164.114 149.308 163.898 151.343 163.423C146.878 179.132 142.987 190.946 140.469 198H186.101C183.815 192.647 180.603 184.82 178.852 180.508C177.488 178.67 176.158 176.888 174.946 175.269C176.653 174.194 180.548 171.454 182.477 169.093Z" fill="#FFDD1D"/>
<path d="M32.4433 64.9517C19.984 64.5514 10.638 73.4529 9.19795 84.0999C7.75592 94.7613 0.926614 114.441 1.0006 133.113C1.0006 137.209 5.8558 155.963 6.46541 164.181C9.31523 163.531 11.9304 162.816 15.1183 164.636L14.2074 156.446C26.9088 158.931 38.5741 161.022 49.0631 161.182C49.0631 161.182 51.3266 161.178 51.9262 161.182C57.1754 161.224 61.9968 161.105 68.0679 160.938C68.1835 160.935 68.2999 160.932 68.4172 160.928C68.71 160.92 69.0083 160.912 69.3126 160.904C69.0499 151.485 65.0222 131.389 65.0222 112.305C65.0222 112.305 67.9463 117.972 71.8524 127.618C73.3364 131.284 78.1893 132.26 100.065 141.944C100.112 137.029 100.993 135.316 102.701 132.431C93.3662 127.072 83.8858 124.342 81.0771 119.089C79.0198 115.241 73.8666 87.74 67.0354 78.1849C59.8457 68.1283 51.483 65.1642 46.9393 64.7366C51.7497 67.9669 52.6514 78.4494 48.1708 79.4992C42.5701 80.8114 34.0906 73.2913 32.4433 64.9517Z" fill="#DEEFF0"/>
<path d="M51.9262 161.182C51.3266 161.178 49.0631 161.182 49.0631 161.182C38.5741 161.022 26.9088 158.931 14.2074 156.446L15.1183 164.636C19.6724 180.561 17.8508 181.471 14.2074 174.646C13.752 177.376 17.1734 186.442 16.94 187.841C16.5794 190.003 14.5071 188.273 13.1676 185.919L13.0175 198H46.2807H72.8767L69.3126 160.904L68.4172 160.928L68.0679 160.938C61.3837 161.123 57.632 161.227 51.9262 161.182Z" fill="white"/>
<path d="M30.4963 42.93L31.4752 42.7255C31.3948 42.3406 31.0962 42.0385 30.7123 41.9536L30.4963 42.93ZM9.19795 84.0999L8.20697 83.9659L9.19795 84.0999ZM46.9393 64.7366L45.9429 64.821C45.9685 65.1233 46.1299 65.3976 46.3818 65.5668L46.9393 64.7366ZM48.1708 79.4992L47.9427 78.5256L47.9427 78.5256L48.1708 79.4992ZM67.0354 78.1849L66.222 78.7665L67.0354 78.1849ZM81.0771 119.089L81.9589 118.617L81.0771 119.089ZM63.3481 89.1912C63.2418 88.6493 62.7163 88.2961 62.1743 88.4024C61.6324 88.5087 61.2792 89.0342 61.3855 89.5762L62.3668 89.3837L63.3481 89.1912ZM100.065 141.944L99.6603 142.859C99.6853 142.87 99.7107 142.88 99.7365 142.889L100.065 141.944ZM71.8524 127.618L70.9255 127.994L70.9255 127.994L71.8524 127.618ZM6.46541 164.181L5.46815 164.255L6.46541 164.181ZM21.5657 97.9366C21.6687 97.394 21.3124 96.8706 20.7698 96.7676C20.2272 96.6645 19.7038 97.0209 19.6008 97.5635L20.5832 97.75L21.5657 97.9366ZM123.816 141.944L123.34 141.065L123.34 141.065L123.816 141.944ZM198.434 198V199C198.782 199 199.105 198.819 199.287 198.522C199.468 198.226 199.483 197.856 199.325 197.546L198.434 198ZM190.468 198L189.639 198.56C189.825 198.835 190.136 199 190.468 199V198ZM159.644 152.676L160.634 152.818L160.634 152.818L159.644 152.676ZM151.343 163.423L152.305 163.696C152.402 163.356 152.311 162.989 152.067 162.733C151.823 162.477 151.461 162.369 151.116 162.449L151.343 163.423ZM178.852 180.508L179.655 179.912L179.655 179.912L178.852 180.508ZM174.946 175.269L174.146 175.868L174.146 175.868L174.946 175.269ZM172.42 170.242C172.087 169.801 171.46 169.713 171.019 170.046C170.578 170.379 170.491 171.006 170.823 171.447L171.621 170.844L172.42 170.242ZM144.966 164.056L144.939 165.055L144.939 165.055L144.966 164.056ZM118.09 139.064L118.304 138.087C117.854 137.989 117.396 138.21 117.193 138.623L118.09 139.064ZM115.227 134.432L114.985 135.403L114.985 135.403L115.227 134.432ZM117.085 145.361L116.716 144.431L116.716 144.431L117.085 145.361ZM16.94 187.841L17.9264 188.005L16.94 187.841ZM140.469 198L139.527 197.664C139.418 197.97 139.464 198.31 139.651 198.576C139.839 198.842 140.143 199 140.469 199V198ZM186.101 198V199C186.437 199 186.75 198.831 186.935 198.551C187.12 198.271 187.152 197.916 187.02 197.607L186.101 198ZM13.0175 198L12.0176 197.988C12.0143 198.255 12.1182 198.512 12.3061 198.703C12.4939 198.893 12.7502 199 13.0175 199V198ZM72.8767 198V199C73.1585 199 73.4273 198.881 73.6168 198.672C73.8063 198.464 73.899 198.185 73.8721 197.904L72.8767 198ZM49.0631 161.182L49.0478 162.182C49.0536 162.182 49.0594 162.182 49.0652 162.182L49.0631 161.182ZM51.9262 161.182L51.9183 162.182L51.9183 162.182L51.9262 161.182ZM47.2799 186.436C47.2581 185.884 46.7931 185.455 46.2412 185.477C45.6894 185.498 45.2597 185.963 45.2815 186.515L46.2807 186.476L47.2799 186.436ZM14.2074 156.446L13.2107 156.526C13.2115 156.536 13.2125 156.546 13.2136 156.556L14.2074 156.446ZM13.1676 185.919L14.0367 185.424L14.0367 185.424L13.1676 185.919ZM8.74239 177.376L7.78065 177.65L7.78065 177.65L8.74239 177.376ZM14.2074 174.646L15.0896 174.175C14.888 173.797 14.4682 173.59 14.0456 173.659C13.6231 173.728 13.2915 174.059 13.2211 174.481L14.2074 174.646ZM71.0778 34.7384L70.1211 35.0294L70.1211 35.0294L71.0778 34.7384ZM69.7149 44.5836V43.5836C69.2459 43.5836 68.84 43.9095 68.7385 44.3673L69.7149 44.5836ZM57.4716 61.8047L57.369 60.81L57.369 60.81L57.4716 61.8047ZM26.9588 29.9544L27.6884 30.6384L27.6884 30.6384L26.9588 29.9544ZM37.4711 33.1732L36.6585 33.756C36.9147 34.1133 37.3741 34.2613 37.7906 34.1208L37.4711 33.1732ZM52.8811 17.5325L53.0618 16.549C52.5711 16.4588 52.0889 16.7442 51.9319 17.2178L52.8811 17.5325ZM76.8167 12.4191L77.7962 12.6206L77.7962 12.6206L76.8167 12.4191ZM39.7104 4.72792L39.1808 3.87971L39.7104 4.72792ZM26.048 39.5095L26.9423 39.062L26.048 39.5095ZM19.8386 20.1102L20.7925 20.4106L19.8386 20.1102ZM71.7896 17.8147L71.5007 16.8574L71.5007 16.8574L71.7896 17.8147ZM46.3356 57.8061L46.8849 56.9704L46.8833 56.9694L46.3356 57.8061ZM43.4467 54.4599C43.0284 54.0993 42.397 54.1461 42.0364 54.5644C41.6758 54.9828 41.7226 55.6142 42.1409 55.9748L42.7938 55.2174L43.4467 54.4599ZM160.28 148.158L160.08 149.137C160.128 149.147 160.178 149.153 160.227 149.156L160.28 148.158ZM143.089 131.356L144.089 131.354C144.088 130.903 143.785 130.508 143.35 130.391L143.089 131.356ZM143.361 125.35L143.293 126.348C143.769 126.38 144.201 126.072 144.326 125.612L143.361 125.35ZM150.972 109.842L151.773 109.244C151.588 108.996 151.298 108.847 150.987 108.842C150.677 108.838 150.382 108.977 150.189 109.22L150.972 109.842ZM178.39 126.533L179.389 126.512C179.38 126.083 179.099 125.708 178.69 125.58L178.39 126.533ZM177.364 133.27L176.483 132.797C176.272 133.189 176.346 133.674 176.666 133.986C176.985 134.297 177.472 134.359 177.859 134.138L177.364 133.27ZM177.001 141.661L177.445 140.765C176.974 140.532 176.404 140.702 176.138 141.155L177.001 141.661ZM148.418 103.85L147.674 103.182L147.674 103.182L148.418 103.85ZM166.327 99.1802L166.067 100.146L166.067 100.146L166.327 99.1802ZM181.104 106.218L181.037 107.216C181.48 107.246 181.89 106.98 182.043 106.563L181.104 106.218ZM200.096 86.3527L200.04 85.3542L200.04 85.3542L200.096 86.3527ZM216 95.3759L215.496 96.2394C215.887 96.4682 216.384 96.4047 216.705 96.0847C217.027 95.7647 217.093 95.2684 216.866 94.8756L216 95.3759ZM202.44 93.7048L202.244 92.7242C201.859 92.8011 201.555 93.0965 201.466 93.4791C201.377 93.8618 201.521 94.2609 201.833 94.4994L202.44 93.7048ZM212.923 106.704L212.402 107.558C212.671 107.722 213.001 107.75 213.293 107.633C213.585 107.517 213.806 107.27 213.888 106.966L212.923 106.704ZM187.349 111.832L186.539 111.247C186.298 111.58 186.286 112.027 186.508 112.373L187.349 111.832ZM176.444 125.964L176.717 125.002L176.717 125.002L176.444 125.964ZM146.889 117.341L147.786 117.782L147.786 117.782L146.889 117.341ZM31.8404 49.9746L32.8278 49.8163L32.8278 49.8163L31.8404 49.9746ZM1.0006 133.113L2.0006 133.113L2.00059 133.11L1.0006 133.113ZM32.4433 64.9517L32.4754 63.9522C19.4884 63.5349 9.71372 72.826 8.20697 83.9659L9.19795 84.0999L10.1889 84.234C11.5623 74.0798 20.4796 65.5678 32.4112 65.9511L32.4433 64.9517ZM32.4433 64.9517L31.4623 65.1454C32.3344 69.5609 34.996 73.7079 38.1508 76.5839C41.2581 79.4166 45.111 81.2432 48.399 80.4728L48.1708 79.4992L47.9427 78.5256C45.6299 79.0674 42.4427 77.7901 39.4982 75.1059C36.6013 72.465 34.1995 68.6821 33.4244 64.7579L32.4433 64.9517ZM48.1708 79.4992L48.399 80.4728C49.9363 80.1126 50.9261 78.9498 51.4741 77.574C52.0184 76.2076 52.1777 74.5322 52.0356 72.8514C51.7554 69.5349 50.252 65.7566 47.4968 63.9064L46.9393 64.7366L46.3818 65.5668C48.437 66.9469 49.7897 70.025 50.0427 73.0198C50.1674 74.4946 50.0126 75.8386 49.6161 76.8339C49.2234 77.8197 48.6456 78.3609 47.9427 78.5256L48.1708 79.4992ZM46.9393 64.7366L46.8456 65.7322C51.0991 66.1325 59.1998 68.9443 66.222 78.7665L67.0354 78.1849L67.8489 77.6033C60.4916 67.3123 51.867 64.1959 47.033 63.741L46.9393 64.7366ZM67.0354 78.1849L66.222 78.7665C67.8501 81.0439 69.4162 84.4525 70.8844 88.4137C72.3465 92.3585 73.6869 96.7824 74.8837 101.047C76.0817 105.317 77.1266 109.393 78.0101 112.678C78.4502 114.314 78.8508 115.756 79.2076 116.913C79.5568 118.046 79.8867 118.984 80.1952 119.56L81.0771 119.089L81.9589 118.617C81.7531 118.232 81.472 117.469 81.1189 116.324C80.7734 115.203 80.3806 113.791 79.9415 112.158C79.0667 108.906 78.0106 104.788 76.8093 100.507C75.6067 96.2215 74.2494 91.7379 72.7597 87.7186C71.2761 83.7157 69.6363 80.1034 67.8489 77.6033L67.0354 78.1849ZM81.0771 119.089L80.1952 119.56C81.7633 122.493 85.1129 124.609 88.9826 126.609C92.9707 128.669 97.5455 130.625 102.203 133.298L102.701 132.431L103.199 131.563C98.5214 128.879 93.6888 126.789 89.9008 124.832C85.9945 122.813 83.1995 120.938 81.9589 118.617L81.0771 119.089ZM102.701 132.431L101.84 131.921C100.986 133.365 100.283 134.603 99.8058 136.127C99.3268 137.657 99.0893 139.42 99.0651 141.935L100.065 141.944L101.065 141.954C101.088 139.553 101.315 138.002 101.714 136.725C102.116 135.443 102.708 134.382 103.561 132.94L102.701 132.431ZM100.065 141.944L100.47 141.03C89.4693 136.16 82.871 133.532 78.7318 131.617C74.5731 129.692 73.3565 128.669 72.7793 127.243L71.8524 127.618L70.9255 127.994C71.8322 130.233 73.7841 131.531 77.8918 133.432C82.019 135.342 88.7851 138.044 99.6603 142.859L100.065 141.944ZM69.3126 160.904L70.3122 160.876C70.1791 156.105 69.0949 148.642 68.0616 140.109C67.0228 131.53 66.0222 121.784 66.0222 112.305H65.0222H64.0222C64.0222 121.91 65.0354 131.754 66.0761 140.349C67.1224 148.99 68.1834 156.284 68.313 160.931L69.3126 160.904ZM65.0222 112.305L66.0207 112.251C65.7738 107.698 66.0195 102.812 63.3481 89.1912L62.3668 89.3837L61.3855 89.5762C64.0249 103.034 63.775 107.773 64.0236 112.359L65.0222 112.305ZM71.8524 127.618L72.7793 127.243C70.8192 122.402 69.1049 118.559 67.8793 115.923C67.2664 114.604 66.7757 113.588 66.4375 112.9C66.2685 112.556 66.1375 112.294 66.0484 112.117C66.0039 112.029 65.9699 111.962 65.9468 111.917C65.9352 111.894 65.9264 111.877 65.9204 111.865C65.9174 111.859 65.9151 111.855 65.9135 111.852C65.9127 111.85 65.9121 111.849 65.9116 111.848C65.9114 111.848 65.9112 111.847 65.9111 111.847C65.911 111.847 65.9109 111.847 65.9109 111.847C65.9109 111.847 65.9108 111.846 65.0222 112.305C64.1335 112.764 64.1335 112.764 64.1335 112.764C64.1335 112.764 64.1335 112.764 64.1335 112.764C64.1335 112.764 64.1336 112.764 64.1338 112.764C64.134 112.765 64.1345 112.766 64.1351 112.767C64.1363 112.769 64.1383 112.773 64.1409 112.778C64.1462 112.788 64.1543 112.804 64.1651 112.825C64.1868 112.868 64.2194 112.932 64.2624 113.017C64.3485 113.188 64.4765 113.444 64.6426 113.782C64.9748 114.458 65.4592 115.461 66.0657 116.766C67.2787 119.375 68.9794 123.188 70.9255 127.994L71.8524 127.618ZM170.806 146.947L169.83 146.732L168.688 151.908L169.665 152.124L170.641 152.339L171.783 147.162L170.806 146.947ZM169.665 152.124L169.524 153.114C170.475 153.249 171.638 154.005 172.937 155.364C174.205 156.69 175.47 158.449 176.642 160.314C178.983 164.041 180.863 168.046 181.576 169.527L182.477 169.093L183.378 168.659C182.674 167.198 180.747 163.088 178.335 159.25C177.131 157.333 175.783 155.447 174.383 153.982C173.013 152.549 171.453 151.368 169.805 151.134L169.665 152.124ZM182.477 169.093L181.576 169.527C182.616 171.686 185.725 177.18 188.993 182.966C192.279 188.785 195.744 194.928 197.543 198.454L198.434 198L199.325 197.546C197.502 193.971 194.01 187.782 190.734 181.983C187.44 176.151 184.381 170.742 183.378 168.659L182.477 169.093ZM198.434 198V197H190.468V198V199H198.434V198ZM160.292 148.158L159.302 148.016L158.654 152.534L159.644 152.676L160.634 152.818L161.281 148.299L160.292 148.158ZM190.468 198L191.297 197.44C188.942 193.953 184.08 185.874 179.655 179.912L178.852 180.508L178.049 181.104C182.455 187.041 187.171 194.904 189.639 198.56L190.468 198ZM159.644 152.676L158.654 152.534C158.559 153.201 158.679 153.849 159.102 154.371C159.503 154.866 160.07 155.116 160.604 155.242C161.649 155.489 162.99 155.36 164.235 155.118C165.514 154.87 166.834 154.472 167.907 154.074C168.445 153.874 168.932 153.67 169.33 153.479C169.697 153.302 170.077 153.094 170.328 152.873L169.665 152.124L169.002 151.375C169.002 151.375 168.963 151.407 168.857 151.47C168.758 151.528 168.626 151.598 168.462 151.677C168.134 151.835 167.706 152.015 167.212 152.199C166.221 152.566 165.006 152.931 163.853 153.155C162.665 153.386 161.675 153.44 161.064 153.296C160.769 153.226 160.675 153.136 160.656 153.112C160.649 153.103 160.64 153.09 160.633 153.059C160.624 153.023 160.615 152.948 160.634 152.818L159.644 152.676ZM178.852 180.508L179.655 179.912C178.29 178.072 176.96 176.289 175.747 174.669L174.946 175.269L174.146 175.868C175.357 177.486 176.685 179.267 178.049 181.104L178.852 180.508ZM174.946 175.269L175.747 174.669C174.479 172.976 173.339 171.46 172.42 170.242L171.621 170.844L170.823 171.447C171.741 172.663 172.88 174.176 174.146 175.868L174.946 175.269ZM182.477 169.093L181.703 168.46C179.884 170.685 176.111 173.353 174.413 174.422L174.946 175.269L175.479 176.115C177.194 175.035 181.211 172.222 183.251 169.726L182.477 169.093ZM159.644 152.676L159.785 151.686C159.052 151.582 158.179 151.696 157.285 151.865C156.375 152.037 155.289 152.3 154.13 152.558C151.777 153.081 148.925 153.632 145.679 153.638L145.681 154.638L145.683 155.638C149.148 155.631 152.169 155.043 154.565 154.51C155.78 154.24 156.788 153.995 157.656 153.831C158.54 153.664 159.127 153.613 159.503 153.666L159.644 152.676ZM151.343 163.423L151.116 162.449C149.167 162.904 147.107 163.112 144.992 163.056L144.966 164.056L144.939 165.055C147.219 165.115 149.45 164.892 151.57 164.397L151.343 163.423ZM145.681 154.638L144.726 154.933C145.22 156.532 145.176 158.307 144.927 159.933C144.678 161.555 144.243 162.937 144.004 163.783L144.966 164.056L145.928 164.328C146.152 163.537 146.632 162.012 146.904 160.236C147.175 158.463 147.257 156.348 146.637 154.342L145.681 154.638ZM109.859 136.316L110.189 135.373C109.112 134.996 108.121 134.482 107.013 133.837C106.457 133.513 105.882 133.163 105.251 132.78C104.623 132.4 103.945 131.992 103.199 131.563L102.701 132.431L102.203 133.298C102.928 133.714 103.589 134.112 104.215 134.491C104.837 134.868 105.432 135.231 106.006 135.565C107.16 136.237 108.276 136.822 109.528 137.26L109.859 136.316ZM109.859 136.316H108.859C108.859 137.39 108.859 138.644 109.391 139.725C109.969 140.899 111.066 141.698 112.821 142.168L113.08 141.202L113.338 140.236C111.943 139.863 111.43 139.34 111.185 138.842C110.894 138.25 110.859 137.483 110.859 136.316H109.859ZM113.08 141.202L112.821 142.168C114.576 142.638 115.945 142.487 117.009 141.854C118.036 141.243 118.607 140.278 118.987 139.506L118.09 139.064L117.193 138.623C116.857 139.306 116.498 139.831 115.986 140.136C115.511 140.418 114.732 140.609 113.338 140.236L113.08 141.202ZM109.859 136.316H110.859C110.859 136.138 110.919 136.003 111.089 135.857C111.287 135.688 111.62 135.525 112.091 135.409C113.038 135.176 114.215 135.211 114.985 135.403L115.227 134.432L115.468 133.462C114.398 133.195 112.891 133.153 111.613 133.467C110.973 133.625 110.309 133.892 109.788 134.338C109.238 134.809 108.859 135.475 108.859 136.316H109.859ZM123.816 141.944L124.292 142.824C125.231 142.315 125.755 141.249 125.481 140.22C125.183 139.098 124.102 138.475 122.742 138.475V139.475V140.475C123.141 140.475 123.351 140.561 123.445 140.62C123.53 140.673 123.544 140.717 123.548 140.733C123.562 140.783 123.548 140.952 123.34 141.065L123.816 141.944ZM122.742 139.475V138.475C121.34 138.475 119.6 138.371 118.304 138.087L118.09 139.064L117.876 140.041C119.377 140.369 121.282 140.475 122.742 140.475V139.475ZM115.227 134.432L114.985 135.403C116.296 135.729 118.026 136.491 119.448 137.391C120.156 137.839 120.752 138.3 121.17 138.727C121.618 139.185 121.737 139.478 121.749 139.587L122.742 139.475L123.736 139.363C123.647 138.572 123.133 137.874 122.6 137.329C122.038 136.753 121.304 136.199 120.517 135.701C118.948 134.708 117.021 133.848 115.468 133.462L115.227 134.432ZM144.966 164.056L144.992 163.056C139.652 162.915 134.437 162.134 129.808 159.551C125.202 156.982 121.075 152.573 118.012 144.986L117.085 145.361L116.158 145.735C119.364 153.678 123.77 158.473 128.833 161.298C133.873 164.109 139.463 164.91 144.939 165.055L144.966 164.056ZM100.065 141.944L99.7365 142.889C101.274 143.424 102.639 144.072 103.966 144.719C105.277 145.358 106.582 146.012 107.918 146.501C110.671 147.509 113.584 147.826 117.454 146.29L117.085 145.361L116.716 144.431C113.359 145.764 110.958 145.484 108.606 144.623C107.389 144.178 106.193 143.579 104.843 142.921C103.509 142.271 102.052 141.577 100.394 141L100.065 141.944ZM117.085 145.361L117.454 146.29C119.777 145.368 122.463 143.815 124.292 142.824L123.816 141.944L123.34 141.065C121.421 142.105 118.895 143.566 116.716 144.431L117.085 145.361ZM145.681 154.638L145.679 153.638C138.353 153.652 130.08 148.885 124.626 141.358L123.816 141.944L123.006 142.531C128.734 150.436 137.556 155.653 145.683 155.638L145.681 154.638ZM151.343 163.423L150.381 163.15C145.921 178.84 142.037 190.632 139.527 197.664L140.469 198L141.41 198.336C143.937 191.259 147.835 179.425 152.305 163.696L151.343 163.423ZM186.101 198V197H140.469V198V199H186.101V198ZM186.101 198L187.02 197.607C184.738 192.263 181.529 184.442 179.779 180.132L178.852 180.508L177.926 180.885C179.677 185.197 182.891 193.031 185.181 198.393L186.101 198ZM51.9262 161.182L51.9342 160.182C51.6289 160.18 50.9079 160.18 50.2689 160.181C49.9482 160.181 49.6462 160.181 49.4245 160.182C49.3136 160.182 49.2228 160.182 49.1596 160.182C49.1281 160.182 49.1034 160.182 49.0867 160.182C49.0783 160.182 49.0719 160.182 49.0676 160.182C49.0654 160.182 49.0638 160.182 49.0627 160.182C49.0621 160.182 49.0617 160.182 49.0615 160.182C49.0613 160.182 49.0612 160.182 49.0611 160.182C49.0611 160.182 49.0611 160.182 49.0611 160.182C49.061 160.182 49.061 160.182 49.0631 161.182C49.0652 162.182 49.0652 162.182 49.0652 162.182C49.0653 162.182 49.0653 162.182 49.0653 162.182C49.0654 162.182 49.0655 162.182 49.0656 162.182C49.0659 162.182 49.0663 162.182 49.0668 162.182C49.0679 162.182 49.0695 162.182 49.0717 162.182C49.076 162.182 49.0824 162.182 49.0907 162.182C49.1074 162.182 49.132 162.182 49.1635 162.182C49.2265 162.182 49.3171 162.182 49.4278 162.182C49.6492 162.181 49.9507 162.181 50.2708 162.181C50.9134 162.18 51.624 162.18 51.9183 162.182L51.9262 161.182ZM72.8767 198V197H46.2807V198V199H72.8767V198ZM46.2807 186.476L45.2815 186.515C45.5667 193.741 45.2807 193.794 45.2807 198H46.2807H47.2807C47.2807 194.016 47.5657 193.675 47.2799 186.436L46.2807 186.476ZM46.2807 198V197H13.0175V198V199H46.2807V198ZM69.3126 160.904L68.3172 160.999L71.8812 198.096L72.8767 198L73.8721 197.904L70.308 160.808L69.3126 160.904ZM14.2074 156.446L13.2136 156.556L14.1245 164.746L15.1183 164.636L16.1122 164.525L15.2013 156.335L14.2074 156.446ZM49.0631 161.182L49.0784 160.182C38.6914 160.024 27.1097 157.951 14.3995 155.464L14.2074 156.446L14.0154 157.427C26.7079 159.911 38.4569 162.02 49.0478 162.182L49.0631 161.182ZM13.0175 198L14.0175 198.012L14.1675 185.931L13.1676 185.919L12.1676 185.906L12.0176 197.988L13.0175 198ZM13.1676 185.919L12.2984 186.413C13.0019 187.65 13.9554 188.837 14.8911 189.421C15.3343 189.698 16.0327 189.999 16.7543 189.714C17.5161 189.413 17.8167 188.663 17.9264 188.005L16.94 187.841L15.9537 187.676C15.8831 188.1 15.7894 187.944 16.0194 187.853C16.2092 187.778 16.2381 187.905 15.9508 187.725C15.4253 187.397 14.6728 186.542 14.0367 185.424L13.1676 185.919ZM6.46541 164.181L5.46815 164.255C5.87903 169.793 6.8102 174.243 7.78065 177.65L8.74239 177.376L9.70413 177.102C8.76786 173.815 7.86273 169.5 7.46267 164.107L6.46541 164.181ZM8.74239 177.376L7.78065 177.65C8.87982 181.508 11.141 184.379 12.2984 186.413L13.1676 185.919L14.0367 185.424C12.6876 183.053 10.7157 180.653 9.70413 177.102L8.74239 177.376ZM16.94 187.841L17.9264 188.005C17.9879 187.637 17.9231 187.181 17.8548 186.805C17.778 186.383 17.6582 185.875 17.5158 185.323C17.2323 184.223 16.8335 182.848 16.4543 181.476C16.0704 180.087 15.701 178.683 15.4554 177.465C15.2005 176.2 15.1139 175.289 15.1938 174.81L14.2074 174.646L13.2211 174.481C13.0733 175.367 13.2436 176.614 13.4948 177.86C13.7554 179.153 14.1413 180.615 14.5266 182.009C14.9166 183.42 15.301 184.744 15.5791 185.823C15.7176 186.36 15.8232 186.812 15.887 187.163C15.9595 187.562 15.9505 187.695 15.9537 187.676L16.94 187.841ZM14.2074 174.646L13.3253 175.117C14.2398 176.83 15.0927 178.164 15.8123 178.9C15.998 179.089 16.2022 179.268 16.4227 179.405C16.6346 179.537 16.9365 179.677 17.2975 179.677C17.7068 179.677 18.0623 179.497 18.3122 179.213C18.5331 178.963 18.6444 178.665 18.707 178.415C18.8319 177.915 18.8431 177.268 18.7894 176.528C18.7342 175.767 18.603 174.825 18.3927 173.695C17.9719 171.433 17.2226 168.357 16.0798 164.361L15.1183 164.636L14.1569 164.911C15.2911 168.877 16.0218 171.886 16.4264 174.061C16.6289 175.149 16.7467 176.012 16.7947 176.673C16.8442 177.356 16.8127 177.746 16.7668 177.929C16.7439 178.021 16.7378 177.975 16.8116 177.891C16.9143 177.775 17.0928 177.677 17.2975 177.677C17.4539 177.677 17.5236 177.735 17.4781 177.706C17.4411 177.683 17.3624 177.624 17.2421 177.501C16.7378 176.986 15.9968 175.874 15.0896 174.175L14.2074 174.646ZM71.0778 34.7384L70.1211 35.0294C70.58 36.5383 71.0892 37.9823 71.4574 39.1356C71.8436 40.3453 72.0905 41.281 72.1375 41.9974C72.1832 42.695 72.0292 42.9767 71.8424 43.1359C71.5934 43.3482 71.0141 43.5836 69.7149 43.5836V44.5836V45.5836C71.1466 45.5836 72.3335 45.3454 73.1399 44.6579C74.0086 43.9173 74.1992 42.8732 74.1332 41.8665C74.0684 40.8785 73.747 39.7313 73.3627 38.5274C72.9603 37.267 72.4966 35.9664 72.0345 34.4474L71.0778 34.7384ZM69.7149 44.5836L68.7385 44.3673C67.9387 47.977 66.1003 52.0448 63.8942 55.2591C62.7927 56.8641 61.6206 58.2253 60.4702 59.2034C59.3048 60.1942 58.2473 60.7194 57.369 60.81L57.4716 61.8047L57.5742 62.7995C59.0271 62.6496 60.458 61.8389 61.7657 60.7271C63.0885 59.6024 64.3743 58.094 65.5432 56.3909C67.878 52.989 69.83 48.6867 70.6912 44.7999L69.7149 44.5836ZM26.9588 29.9544L27.6884 30.6384C28.6531 29.6094 29.5439 29.2329 30.3218 29.1698C31.1205 29.1051 31.9441 29.3592 32.7741 29.8534C34.4646 30.86 35.8896 32.684 36.6585 33.756L37.4711 33.1732L38.2837 32.5905C37.5056 31.5055 35.8756 29.3724 33.7973 28.1349C32.7428 27.5071 31.5036 27.0674 30.1602 27.1764C28.7961 27.287 27.4657 27.9517 26.2293 29.2705L26.9588 29.9544ZM37.4711 33.1732L37.7906 34.1208C46.8431 31.068 52.2394 22.6456 53.8303 17.8472L52.8811 17.5325L51.9319 17.2178C50.4708 21.6246 45.4304 29.4337 37.1515 32.2257L37.4711 33.1732ZM76.8167 12.4191L77.7962 12.6206C78.2929 10.205 76.6434 7.90175 74.3143 6.083C71.9151 4.20949 68.4687 2.57319 64.5601 1.47263C56.7664 -0.72188 46.7942 -0.874395 39.1808 3.87971L39.7104 4.72792L40.2401 5.57613C47.1999 1.23015 56.5283 1.28886 64.0181 3.39777C67.7512 4.44893 70.9423 5.9874 73.0834 7.65932C75.2945 9.386 76.0878 10.9989 75.8372 12.2177L76.8167 12.4191ZM30.4963 42.93L30.7123 41.9536C30.2094 41.8424 29.4466 41.5096 28.696 40.977C27.9482 40.4462 27.3015 39.7797 26.9423 39.062L26.048 39.5095L25.1537 39.9571C25.7054 41.0593 26.6209 41.9567 27.5385 42.6079C28.4534 43.2573 29.4592 43.7248 30.2803 43.9064L30.4963 42.93ZM26.048 39.5095L26.9423 39.062C26.0562 37.2915 25.7131 35.776 25.833 34.4409C25.9513 33.1231 26.5301 31.8739 27.6884 30.6384L26.9588 29.9544L26.2293 29.2705C24.8215 30.7722 24.006 32.4245 23.841 34.262C23.6776 36.0821 24.1621 37.9755 25.1537 39.9571L26.048 39.5095ZM52.8811 17.5325L52.7004 18.5161C62.0448 20.2331 68.1409 19.9604 72.0785 18.7721L71.7896 17.8147L71.5007 16.8574C67.9956 17.9152 62.2588 18.2389 53.0618 16.549L52.8811 17.5325ZM71.7896 17.8147L72.0785 18.7721C74.2875 18.1054 75.6567 17.0549 76.5099 15.8622C77.3476 14.691 77.6219 13.4681 77.7962 12.6206L76.8167 12.4191L75.8372 12.2177C75.67 13.0305 75.4593 13.8932 74.8832 14.6986C74.3224 15.4825 73.3488 16.2996 71.5007 16.8574L71.7896 17.8147ZM71.7896 17.8147L70.7982 17.9459C71.33 21.9635 70.8401 24.9675 70.3616 27.5739C69.8918 30.1328 69.3648 32.5433 70.1211 35.0294L71.0778 34.7384L72.0345 34.4474C71.4491 32.5228 71.8308 30.6473 72.3287 27.935C72.8179 25.2702 73.3546 22.0177 72.7809 17.6835L71.7896 17.8147ZM57.4716 61.8047L57.369 60.81C56.2092 60.9297 54.3935 60.5201 52.3763 59.7501C50.3992 58.9955 48.3839 57.9557 46.8849 56.9704L46.3356 57.8061L45.7863 58.6417C47.4116 59.71 49.5569 60.8147 51.6631 61.6186C53.7291 62.4072 55.9193 62.9702 57.5742 62.7995L57.4716 61.8047ZM39.7104 4.72792L39.1808 3.87971C38.3993 4.36768 37.184 4.63946 35.4497 5.0074C33.7914 5.35924 31.7949 5.7807 29.7569 6.63236C25.5997 8.36963 21.393 11.8435 18.8848 19.8099L19.8386 20.1102L20.7925 20.4106C23.1274 12.9947 26.9257 9.98313 30.5281 8.47771C32.3699 7.70801 34.1919 7.31879 35.8648 6.96385C37.4619 6.62501 39.0906 6.29392 40.2401 5.57613L39.7104 4.72792ZM46.3356 57.8061L46.8833 56.9694C45.5878 56.1214 44.751 55.5842 43.4467 54.4599L42.7938 55.2174L42.1409 55.9748C43.5541 57.193 44.4887 57.7924 45.788 58.6428L46.3356 57.8061ZM46.9393 64.7366C47.9357 64.6522 47.9357 64.6522 47.9357 64.6522C47.9357 64.6521 47.9357 64.6521 47.9357 64.652C47.9357 64.6519 47.9357 64.6517 47.9357 64.6514C47.9356 64.6509 47.9356 64.6502 47.9355 64.6492C47.9353 64.6473 47.9351 64.6443 47.9347 64.6404C47.9341 64.6326 47.9331 64.6211 47.9318 64.6059C47.9292 64.5754 47.9254 64.5305 47.9205 64.4722C47.9106 64.3557 47.8961 64.186 47.878 63.9735C47.8417 63.5484 47.7907 62.9517 47.7315 62.2649C47.6131 60.8917 47.462 59.1574 47.3315 57.7159L46.3356 57.8061L45.3397 57.8962C45.4697 59.3333 45.6205 61.0643 45.7388 62.4367C45.798 63.1227 45.849 63.7189 45.8852 64.1435C45.9033 64.3558 45.9178 64.5252 45.9276 64.6415C45.9326 64.6997 45.9364 64.7446 45.939 64.7749C45.9402 64.7901 45.9412 64.8016 45.9419 64.8093C45.9422 64.8132 45.9425 64.8161 45.9426 64.8181C45.9427 64.819 45.9428 64.8198 45.9428 64.8203C45.9428 64.8205 45.9428 64.8207 45.9429 64.8208C45.9429 64.8209 45.9429 64.8209 45.9429 64.8209C45.9429 64.821 45.9429 64.821 46.9393 64.7366ZM160.28 148.158L160.481 147.178C150.463 145.129 144.108 138.155 144.089 131.354L143.089 131.356L142.089 131.359C142.111 139.429 149.488 146.971 160.08 149.137L160.28 148.158ZM143.089 131.356L143.35 130.391C141.964 130.017 141.458 128.939 141.544 127.973C141.634 126.975 142.296 126.28 143.293 126.348L143.361 125.35L143.428 124.352C141.089 124.194 139.714 125.989 139.552 127.794C139.388 129.631 140.415 131.67 142.829 132.322L143.089 131.356ZM178.39 126.533L177.39 126.555C177.438 128.79 177.19 130.387 176.942 131.405C176.818 131.914 176.694 132.28 176.605 132.509C176.561 132.624 176.526 132.705 176.504 132.752C176.493 132.776 176.485 132.791 176.482 132.799C176.48 132.802 176.479 132.804 176.479 132.804C176.479 132.803 176.479 132.803 176.48 132.802C176.48 132.801 176.481 132.8 176.481 132.799C176.481 132.799 176.482 132.799 176.482 132.798C176.482 132.798 176.482 132.797 176.482 132.797C176.483 132.797 176.483 132.797 177.364 133.27C178.245 133.743 178.245 133.742 178.245 133.742C178.245 133.742 178.246 133.741 178.246 133.741C178.246 133.74 178.246 133.74 178.247 133.739C178.248 133.738 178.248 133.736 178.249 133.735C178.251 133.731 178.253 133.728 178.255 133.723C178.26 133.715 178.265 133.704 178.271 133.691C178.284 133.666 178.301 133.632 178.32 133.589C178.359 133.504 178.411 133.385 178.471 133.23C178.59 132.921 178.741 132.473 178.886 131.878C179.176 130.688 179.441 128.917 179.389 126.512L178.39 126.533ZM177.364 133.27L177.859 134.138C179.922 132.963 181.881 133.384 182.961 134.283L183.601 133.514L184.241 132.746C182.498 131.296 179.632 130.826 176.869 132.401L177.364 133.27ZM183.601 133.514L182.961 134.283C183.358 134.613 183.644 135.249 183.641 136.195C183.638 137.126 183.349 138.228 182.763 139.272L183.635 139.762L184.507 140.251C185.238 138.948 185.637 137.514 185.641 136.201C185.645 134.904 185.255 133.59 184.241 132.746L183.601 133.514ZM183.635 139.762L182.763 139.272C182.194 140.285 181.461 140.927 180.636 141.198C179.819 141.466 178.764 141.419 177.445 140.765L177.001 141.661L176.557 142.557C178.234 143.388 179.837 143.565 181.259 143.098C182.673 142.634 183.758 141.585 184.507 140.251L183.635 139.762ZM177.001 141.661L176.138 141.155C175.482 142.273 174.367 143.364 173.21 144.263C172.056 145.16 170.954 145.794 170.41 146.029L170.806 146.947L171.203 147.865C171.942 147.546 173.189 146.812 174.437 145.842C175.683 144.873 177.023 143.599 177.863 142.167L177.001 141.661ZM143.361 125.35L144.326 125.612C144.72 124.161 145.398 122.554 146.223 120.932L145.332 120.478L144.441 120.025C143.581 121.714 142.839 123.456 142.396 125.088L143.361 125.35ZM145.332 120.478L146.14 119.889C145.673 119.248 145.348 118.259 145.226 116.978C145.106 115.712 145.194 114.241 145.476 112.716C146.044 109.645 147.37 106.517 149.163 104.517L148.418 103.85L147.674 103.182C145.566 105.533 144.122 109.037 143.509 112.352C143.201 114.019 143.094 115.68 143.235 117.167C143.375 118.64 143.765 120.026 144.524 121.067L145.332 120.478ZM148.418 103.85L149.163 104.517C152.805 100.455 158.821 98.1892 166.067 100.146L166.327 99.1802L166.588 98.2148C158.633 96.0666 151.833 98.5432 147.674 103.182L148.418 103.85ZM166.327 99.1802L166.067 100.146C169.717 101.131 172.473 102.768 174.779 104.229C175.916 104.949 176.993 105.66 177.982 106.192C178.973 106.726 179.99 107.145 181.037 107.216L181.104 106.218L181.172 105.22C180.55 105.178 179.835 104.918 178.93 104.431C178.023 103.943 177.04 103.294 175.849 102.539C173.501 101.051 170.538 99.2815 166.588 98.2148L166.327 99.1802ZM181.104 106.218L182.043 106.563C184.648 99.4815 186.752 94.8366 189.411 91.8711C191.994 88.9899 195.165 87.6311 200.152 87.3511L200.096 86.3527L200.04 85.3542C194.672 85.6556 190.946 87.163 187.922 90.5359C184.973 93.8245 182.759 98.8216 180.166 105.873L181.104 106.218ZM200.096 86.3527L200.152 87.3511C204.015 87.1342 207.31 88.4881 209.884 90.3061C212.468 92.1316 214.277 94.393 215.134 95.8762L216 95.3759L216.866 94.8756C215.873 93.1573 213.872 90.6746 211.038 88.6725C208.193 86.663 204.46 85.1061 200.04 85.3542L200.096 86.3527ZM216 95.3759L216.504 94.5124C213.721 92.8867 210.502 92.3815 207.853 92.3022C205.194 92.2227 203.017 92.5698 202.244 92.7242L202.44 93.7048L202.636 94.6854C203.301 94.5524 205.323 94.2274 207.793 94.3013C210.274 94.3756 213.116 94.8496 215.496 96.2394L216 95.3759ZM202.44 93.7048L201.833 94.4994C205.621 97.3938 208.328 100.008 210 102.149C210.837 103.22 211.392 104.144 211.701 104.9C212.016 105.673 212.033 106.166 211.958 106.442L212.923 106.704L213.888 106.966C214.127 106.089 213.947 105.111 213.552 104.144C213.151 103.161 212.481 102.076 211.576 100.917C209.764 98.5975 206.916 95.8661 203.047 92.9102L202.44 93.7048ZM212.923 106.704L213.445 105.851C208.169 102.629 202.273 102.818 197.348 104.347C192.455 105.866 188.332 108.765 186.539 111.247L187.349 111.832L188.16 112.418C189.634 110.378 193.341 107.685 197.941 106.257C202.508 104.839 207.765 104.725 212.402 107.558L212.923 106.704ZM187.349 111.832L186.508 112.373C189.016 116.273 190.136 121.064 190.491 125.392C190.846 129.726 190.424 133.476 189.948 135.227L190.913 135.489L191.879 135.751C192.429 133.725 192.853 129.735 192.484 125.229C192.115 120.716 190.94 115.567 188.19 111.291L187.349 111.832ZM190.913 135.489L189.948 135.227C189.479 136.954 187.382 141.377 184.052 144.494C182.4 146.04 180.501 147.212 178.405 147.62C176.335 148.023 173.973 147.702 171.326 146.092L170.806 146.947L170.287 147.801C173.319 149.645 176.183 150.091 178.787 149.583C181.366 149.081 183.592 147.664 185.418 145.954C189.046 142.559 191.322 137.8 191.879 135.751L190.913 135.489ZM160.28 148.158L160.227 149.156C164.089 149.362 166.425 149.245 171.082 147.908L170.806 146.947L170.53 145.986C166.112 147.254 164.001 147.354 160.333 147.159L160.28 148.158ZM178.39 126.533L178.69 125.58C178.117 125.399 177.448 125.209 176.717 125.002L176.444 125.964L176.171 126.926C176.911 127.136 177.549 127.317 178.089 127.487L178.39 126.533ZM176.444 125.964L176.717 125.002C170.846 123.335 159.979 120.239 151.773 109.244L150.972 109.842L150.171 110.44C158.803 122.007 170.254 125.246 176.171 126.926L176.444 125.964ZM150.972 109.842L150.189 109.22C149.596 109.965 148.911 111.154 148.211 112.479C147.501 113.822 146.737 115.379 145.991 116.901L146.889 117.341L147.786 117.782C148.536 116.253 149.286 114.725 149.979 113.413C150.682 112.084 151.29 111.048 151.755 110.465L150.972 109.842ZM146.889 117.341L145.991 116.901C145.459 117.984 144.936 119.051 144.441 120.025L145.332 120.478L146.223 120.932C146.727 119.942 147.257 118.862 147.786 117.782L146.889 117.341ZM19.8386 20.1102L18.8848 19.8099C17.7995 23.2568 17.1538 26.8242 17.1052 30.0847C17.0568 33.3293 17.5988 36.3619 18.9818 38.6601L19.8386 38.1445L20.6954 37.6289C19.5795 35.7744 19.0595 33.1626 19.105 30.1145C19.1502 27.0824 19.754 23.7089 20.7925 20.4106L19.8386 20.1102ZM30.4963 42.93L29.5174 43.1345C30.0904 45.8772 30.5291 48.1123 30.853 50.1329L31.8404 49.9746L32.8278 49.8163C32.4963 47.7483 32.0499 45.4765 31.4752 42.7255L30.4963 42.93ZM31.8404 49.9746L30.853 50.1329C31.623 54.9364 31.7497 58.5578 31.4445 64.9036L32.4433 64.9517L33.4422 64.9997C33.7518 58.5634 33.6261 54.7963 32.8278 49.8163L31.8404 49.9746ZM19.8386 38.1445L18.9818 38.6601C20.2791 40.8159 22.304 43.3797 24.5224 45.6355C26.7265 47.8767 29.2078 49.9025 31.4355 50.889L31.8404 49.9746L32.2453 49.0603C30.363 48.2267 28.093 46.4138 25.9484 44.2331C23.8182 42.067 21.8971 39.6257 20.6954 37.6289L19.8386 38.1445ZM9.19795 84.0999L8.20697 83.9659C7.49286 89.2455 5.45119 96.7155 3.55387 105.389C1.67117 113.996 -0.0368299 123.67 0.000604409 133.117L1.0006 133.113L2.00059 133.11C1.96404 123.885 3.6337 114.383 5.50767 105.816C7.36701 97.3165 9.461 89.6157 10.1889 84.234L9.19795 84.0999ZM1.0006 133.113H0.000596559C0.000596559 134.249 0.326043 136.287 0.786092 138.725C1.2529 141.199 1.88133 144.195 2.52519 147.304C3.82078 153.558 5.16932 160.226 5.46815 164.255L6.46541 164.181L7.46267 164.107C7.15189 159.917 5.76802 153.099 4.48361 146.898C3.83747 143.779 3.214 140.806 2.7514 138.354C2.28205 135.867 2.0006 134.025 2.0006 133.113H1.0006ZM20.5832 97.75L19.6008 97.5635C18.0685 105.633 16.1464 112.121 14.5934 117.618C13.0512 123.076 11.8413 127.651 11.8413 131.748H12.8413H13.8413C13.8413 127.978 14.9603 123.675 16.518 118.162C18.0649 112.687 20.0138 106.109 21.5657 97.9366L20.5832 97.75ZM12.8413 131.748H11.8413C11.8413 135.72 12.1852 141.925 12.5265 147.113C12.6976 149.712 12.8686 152.065 12.9968 153.768C13.0609 154.62 13.1144 155.309 13.1518 155.785C13.1705 156.024 13.1852 156.209 13.1953 156.334C13.2003 156.397 13.2042 156.445 13.2068 156.477C13.2081 156.493 13.209 156.506 13.2097 156.514C13.21 156.518 13.2103 156.521 13.2105 156.523C13.2106 156.524 13.2106 156.525 13.2107 156.526C13.2107 156.526 13.2107 156.526 13.2107 156.526C13.2107 156.526 13.2107 156.526 14.2074 156.446C15.2042 156.365 15.2042 156.365 15.2042 156.364C15.2041 156.364 15.2041 156.364 15.2041 156.364C15.2041 156.363 15.204 156.363 15.2039 156.362C15.2038 156.36 15.2035 156.357 15.2032 156.353C15.2026 156.345 15.2016 156.333 15.2003 156.317C15.1977 156.285 15.1939 156.237 15.1889 156.175C15.179 156.05 15.1643 155.866 15.1457 155.629C15.1084 155.154 15.0551 154.467 14.9912 153.618C14.8633 151.92 14.6927 149.573 14.5222 146.982C14.1805 141.789 13.8413 135.645 13.8413 131.748H12.8413ZM6.46541 164.181L6.68778 165.156C9.58162 164.496 11.8167 163.902 14.6225 165.504L15.1183 164.636L15.6141 163.767C12.0442 161.729 9.04884 162.566 6.24305 163.206L6.46541 164.181ZM68.4172 160.928L68.445 161.928C68.7376 161.92 69.0359 161.912 69.3402 161.903L69.3126 160.904L69.285 159.904C68.9806 159.912 68.6823 159.921 68.3895 159.929L68.4172 160.928ZM68.4172 160.928L68.4448 161.928C68.7403 161.92 69.0387 161.912 69.3403 161.903L69.3126 160.904L69.2849 159.904C68.9833 159.912 68.685 159.921 68.3896 159.929L68.4172 160.928ZM69.3126 160.904L69.2849 159.904L68.3896 159.929L68.4172 160.928L68.4449 161.928L69.3403 161.903L69.3126 160.904ZM68.4172 160.928L68.3895 159.929L68.0402 159.938L68.0679 160.938L68.0956 161.938L68.445 161.928L68.4172 160.928ZM68.0679 160.938L68.0402 159.938C61.3556 160.124 57.62 160.227 51.9342 160.182L51.9262 161.182L51.9183 162.182C57.6439 162.228 61.4119 162.123 68.0956 161.938L68.0679 160.938ZM68.4172 160.928L68.3895 159.929C68.2722 159.932 68.1557 159.935 68.0402 159.938L68.0679 160.938L68.0956 161.938C68.2112 161.934 68.3276 161.931 68.445 161.928L68.4172 160.928ZM51.9262 161.182L51.9183 162.182C57.1872 162.224 62.0247 162.105 68.0954 161.938L68.0679 160.938L68.0404 159.938C61.969 160.106 57.1636 160.224 51.9342 160.182L51.9262 161.182Z" fill="#716A5F"/>
</svg>
