<svg width="229" height="164" viewBox="0 0 229 164" fill="none" xmlns="http://www.w3.org/2000/svg">
<path d="M129.009 99.9298C128.192 99.5141 126.966 99.2518 125.25 98.7868V106.736H97.6342V101.124C95.9754 103.143 96.1032 103.043 94.6818 104.361C94.6818 104.361 94.8744 111.271 94.6818 112.178C105.115 113.841 120.851 113.215 130.417 110.721C130.311 109.808 130.206 108.42 130.18 106.736C130.154 105.048 130.207 103.064 130.417 100.96C130.174 100.822 129.009 99.9298 129.009 99.9298Z" fill="#DEEFF0"/>
<path d="M151.836 106.174C153.157 99.4762 145.199 81.3043 142.419 71.7199C139.348 61.1348 136.043 60.5138 129.905 57.9782C127.78 57.1004 124.059 56.3327 122.191 55.2992C117.569 59.9875 104.674 62.3617 104.674 54.9944C100.987 59.0636 96.4012 59.711 94.1178 61.004C89.1054 64.1045 85.3343 67.1662 85.3343 74.4737C85.3343 83.4369 84.3143 98.8944 86.552 106.174C86.7875 106.94 87.059 107.615 87.3716 108.183C88.418 110.083 91.5289 107.285 94.6818 104.361C96.1032 103.043 95.9754 103.143 97.6342 101.124V86.8176V68.9393H125.25V88.7601C130.73 92.0604 128.524 91.9833 131.081 94.2111C131.303 91.8771 131.081 91.6152 131.459 89.538C132.291 84.9656 133.53 77.3743 133.53 77.3743C134.142 81.4799 135.569 85.1786 137.106 88.7601C138.32 91.5862 139.603 94.3394 140.61 97.1621L134.311 95.6855L132.291 95.1681C132.291 97.1774 130.417 99.0985 129.009 99.9298C129.009 99.9298 130.174 100.822 130.417 100.96C131.488 101.572 132.983 102.507 133.806 102.929C133.806 102.929 140.203 106.307 140.955 106.581C146.653 108.655 151.385 108.462 151.836 106.174Z" fill="#DEEFF0"/>
<path d="M108.197 140.405C108.301 140.848 126.572 139.574 130.248 137.08C133.492 134.879 136.803 125.76 132.426 118.219C129.647 116.374 119.936 115.542 112.74 118.15C108.659 119.629 104.756 121.131 100.849 122.608C103.682 128.284 105.879 132.208 108.197 140.405Z" fill="#C0B7A8"/>
<path d="M88.9802 118.219C88.9802 118.219 97 116.5 100.849 122.608C104.756 121.131 108.659 119.629 112.74 118.15C119.936 115.542 129.647 116.374 132.426 118.219C131.033 113.922 130.576 112.093 130.417 110.721C120.851 113.215 105.115 113.841 94.6818 112.178C94.2241 114.335 93.0739 116.224 88.9802 118.219Z" fill="#C0B7A8"/>
<path d="M174.289 114.644C176.861 102.057 178.393 96.2906 190.137 96.2906C192.609 100.416 196.401 102.406 206.648 97.4551C213.401 97.4551 216.27 102.166 216.912 108.433C217 109.291 216.94 111.471 216.496 114.644C216.304 116.02 216.039 117.582 215.684 119.304C214.396 125.539 213.6 127.943 212.615 133.58C211.416 140.438 210.885 143.074 210 146.209C209.561 147.765 208.287 150.934 207.768 151.788C206.582 153.741 205.052 154.048 202.559 153.562C201.786 153.412 200.903 153.185 199.886 152.908C191.856 150.718 179.582 145.679 179.582 145.679C179.582 145.679 175.077 143.098 173.935 142.73C174.52 141.717 175.439 138.243 174.432 136.649C175.105 136.801 174.987 137.241 176.518 137.634C176.518 137.634 176.517 135.147 176.007 131.478C175.567 128.321 173.759 123.757 173.759 123.757L173.749 123.707C173.052 120.057 172.943 118.372 174.289 114.644Z" fill="#FFDD1D"/>
<path d="M173.759 123.757C173.759 123.757 175.567 128.321 176.007 131.478C176.517 135.147 176.518 137.634 176.518 137.634C174.987 137.241 175.105 136.801 174.432 136.649C172.269 136.159 171.615 135.945 170.347 135.672C169.99 135.595 167.69 135.18 167.36 135.147C169.497 134.438 171.115 133.744 171.922 132.915C172.433 132.391 173.749 123.707 173.749 123.707L173.759 123.757Z" fill="#FFDD1D"/>
<path d="M166.773 141.438C168.401 142.487 168.815 142.357 169.837 142.487C170.375 142.555 171.368 142.487 172.39 142.487C172.786 142.487 173.212 142.497 173.935 142.73C175.077 143.098 179.582 145.679 179.582 145.679C179.582 145.679 191.856 150.718 199.886 152.908C200.903 153.185 201.786 153.412 202.559 153.562L200.604 162.452H194.5H173.963H158.939H150C143.694 160.374 140.533 159.196 137.5 157L136.114 155.196C136.713 154.703 137.895 153.161 139 152C140.304 150.629 143 148 143 148C149.458 142.028 151.163 137.712 158.078 139.206C158.319 139.67 158.5 140.39 159.783 140.328C159.783 140.328 158.078 146.546 161.142 144.449C162.431 143.566 163.695 142.876 164.731 140.39C165.368 140.511 165.722 140.745 166.338 141.153C166.47 141.24 166.613 141.335 166.773 141.438Z" fill="#FFDD1D"/>
<path d="M43.9569 99.3888C54.139 101.44 56.4057 102.511 59.4035 109.028C60.0481 110.429 65.7257 122.093 67.1994 125.413C61.0475 126.449 61.7115 127.623 59.578 129.963C58.7971 130.82 58.0615 132.209 57.2535 133.002C53.4589 133.695 44.6071 135.07 41.501 135.726C37.3104 136.61 35.7679 137.505 34.3511 139.121C34.3511 139.121 35.7475 141.525 36.2572 142.025C37.2765 143.025 38.6285 143.369 44.2054 142.536C47.9882 141.971 54.7955 142.313 58.232 142.044C57.3237 149.897 57.3395 157.153 58.2771 162.479H20.7193C20.6695 160.256 19.3689 156.324 18.9994 153.666C17.9169 145.878 13.6199 129.761 12.3242 122.222C11.4337 116.04 11.2251 114.35 11.738 111.655C11.8767 110.927 12.0889 110.342 12.3868 109.922C18.9313 100.691 23.752 101.76 26.0073 97.9991C31.2171 101.666 40.4616 107.086 43.9569 99.3888Z" fill="#FFA616"/>
<path d="M69.1985 130.953C70.9417 135.829 72.1847 139.486 70.0053 140.787C68.8021 141.505 66.3944 142.002 62.3299 142.023C61.3054 142.028 59.1852 141.969 58.232 142.044C54.7955 142.313 47.9882 141.971 44.2054 142.536C43.9312 140.261 42.8652 137.192 41.501 135.726C44.6071 135.07 53.4589 133.695 57.2535 133.002C61.5853 132.188 66.1225 131.28 69.1985 130.953Z" fill="#FFA616"/>
<path d="M84.5018 128.677C85.8088 139.389 94.8931 153.862 99.6583 162.452H111.542C111.205 157.295 110.486 151.499 108.976 143.991C108.757 142.901 108.5 141.712 108.197 140.405C105.879 132.208 103.682 128.284 100.849 122.608C97 116.5 88.9802 118.219 88.9802 118.219C86.552 119.051 84.5018 123.207 84.5018 128.677Z" fill="#C0B7A8"/>
<path d="M77.9998 135.08C76.0989 139.652 82.4998 151.788 89.451 162.452H99.6583C94.8931 153.862 85.8088 139.389 84.5018 128.677C81.28 131.026 78.9825 132.716 77.9998 135.08Z" fill="#C0B7A8"/>
<path d="M104.674 54.9944C104.674 62.3617 117.569 59.9875 122.191 55.2992M104.674 54.9944C100.987 59.0636 96.4012 59.711 94.1178 61.004M104.674 54.9944C104.875 53.5668 106.908 49.898 105.684 46.1296M122.191 55.2992C124.059 56.3327 127.78 57.1004 129.905 57.9782M122.191 55.2992C118.376 53.1889 117.917 49.1438 118.659 41.4733M129.009 99.9298C130.417 99.0985 132.291 97.1774 132.291 95.1681M129.009 99.9298C128.192 99.5141 126.966 99.2518 125.25 98.7868M129.009 99.9298C129.009 99.9298 130.174 100.822 130.417 100.96M132.291 95.1681L134.311 95.6855L140.61 97.1621M132.291 95.1681C131.797 94.8055 131.402 94.4902 131.081 94.2111M145.233 98.5016L140.61 97.1621M125.25 88.7601V90.7694C117.144 88.7601 114.612 89.12 114.95 90.3759C116.001 94.2845 115.843 96.2388 125.25 98.7868M125.25 88.7601V68.9393H97.6342V86.8176M125.25 88.7601C130.73 92.0604 128.524 91.9833 131.081 94.2111M125.25 98.7868V106.736H97.6342V101.124M94.1178 61.004C87.7279 60.5184 87.7116 53.337 88.8687 49.7511C91.0824 42.8916 94.553 42.4096 87.3716 33.4929C80.1903 24.5763 90.4217 3.20566 103.026 3.70613C118.374 -4.03055 123.086 6.8103 126.737 11.4665C133.389 19.9485 134.224 23.2032 130.777 31.4874C127.33 39.7716 132.291 41.4733 134.816 47.1643C136.877 51.8114 135.04 57.6352 129.905 57.9782M94.1178 61.004C89.1054 64.1045 85.3343 67.1662 85.3343 74.4737C85.3343 83.4369 84.3143 98.8944 86.552 106.174C86.7875 106.94 87.059 107.615 87.3716 108.183C88.418 110.083 91.5289 107.285 94.6818 104.361M129.905 57.9782C136.043 60.5138 139.348 61.1348 142.419 71.7199C145.199 81.3043 153.157 99.4762 151.836 106.174C151.385 108.462 146.653 108.655 140.955 106.581M140.61 97.1621C139.603 94.3394 138.32 91.5862 137.106 88.7601C135.569 85.1786 134.142 81.4799 133.53 77.3743C133.53 77.3743 132.291 84.9656 131.459 89.538C131.081 91.6152 131.303 91.8771 131.081 94.2111M94.6818 91.8407L91.0226 96.2335M94.6818 91.8407C94.6818 85.931 95.1886 82.0657 94.6818 77.3743M94.6818 91.8407L97.6342 86.8176M97.6342 101.124V86.8176M97.6342 101.124C95.9754 103.143 96.1032 103.043 94.6818 104.361M140.955 106.581C140.203 106.307 133.806 102.929 133.806 102.929C132.983 102.507 131.488 101.572 130.417 100.96M140.955 106.581L137.61 106.629M94.6818 104.361C94.6818 104.361 94.8744 111.271 94.6818 112.178M105.684 46.1296C108.699 47.9878 111.126 47.5676 113.105 47.1643C115.522 46.6719 116.905 44.3391 118.659 41.4733M105.684 46.1296C101.468 43.225 97.8279 37.1116 97.8279 37.1116C94.8964 32.6092 93.7599 30.7276 93.6768 29.4123C97.4759 26.6976 101.556 21.4207 103.026 13.2686C108.847 21.605 119.681 22.6705 121.791 21.8209C122.617 24.4289 122.317 28.6195 122.03 31.4874C121.625 35.5414 120.484 37.9043 118.659 41.4733M84.5018 128.677C81.28 131.026 78.9825 132.716 77.9998 135.08C76.0989 139.652 82.4998 151.788 89.451 162.452H99.6583M84.5018 128.677C85.8088 139.389 94.8931 153.862 99.6583 162.452M84.5018 128.677C84.5018 123.207 86.552 119.051 88.9802 118.219M99.6583 162.452H111.542C111.205 157.295 110.486 151.499 108.976 143.991M132.426 118.219C131.033 113.922 130.576 112.093 130.417 110.721M132.426 118.219C136.803 125.76 133.492 134.879 130.248 137.08C126.572 139.574 108.301 140.848 108.197 140.405M132.426 118.219H137.61M132.426 118.219C129.647 116.374 119.936 115.542 112.74 118.15C108.659 119.629 104.756 121.131 100.849 122.608M108.197 140.405C105.879 132.208 103.682 128.284 100.849 122.608M108.197 140.405C108.5 141.712 108.757 142.901 108.976 143.991M88.9802 118.219C88.9802 118.219 97 116.5 100.849 122.608M88.9802 118.219C93.0739 116.224 94.2241 114.335 94.6818 112.178M130.417 110.721C120.851 113.215 105.115 113.841 94.6818 112.178M130.417 110.721C130.311 109.808 130.206 108.42 130.18 106.736M130.417 100.96C130.207 103.064 130.154 105.048 130.18 106.736M108.976 143.991C108.976 143.991 121.372 143.973 132 143.973M132 143.973C136.114 143.973 136.302 140.328 139 128M132 143.973V162.434M137.61 118.219C140.955 118.15 140.64 120.508 139 128M137.61 118.219V106.629M139 128V152M130.18 106.736L137.61 106.629M204.625 84.4256C206.284 83.4105 208.669 81.7096 208.669 75.5215C210.242 74.6047 211.751 72.6285 211.751 70.5315C211.751 65.7844 208.663 64.6934 206.133 66.8619C201.864 65.4868 188.772 64.2905 188.772 54.9396C186.974 55.6271 185.031 58.085 185.031 62.7396M204.625 84.4256C208.176 86.3936 209.829 87.3104 216.345 86.3936C219.042 73.0032 226.928 56.8996 212.771 48.6488C198.614 40.3979 172.432 52.3184 185.031 62.7396M204.625 84.4256C200.201 87.1327 195.487 89.4385 191.817 88.5928M204.625 84.4256C205.075 87.8634 203.412 89.7544 206.648 97.4551M185.031 62.7396C185.031 65.7559 186.423 67.5973 182.379 75.1605C182.407 76.3134 184.191 76.0906 184.258 77.2232C184.672 81.0162 185.724 84.421 187.226 86.2586C188.384 87.6769 189.893 88.1497 191.817 88.5928M191.817 88.5928C192.69 91.5725 191.158 94.1937 190.137 96.2906M190.137 96.2906C178.393 96.2906 176.861 102.057 174.289 114.644M190.137 96.2906C192.609 100.416 196.401 102.406 206.648 97.4551M174.289 114.644C175.561 112.32 177.02 110.722 179.581 107.887M174.289 114.644C172.943 118.372 173.052 120.057 173.749 123.707M206.648 97.4551C213.401 97.4551 216.27 102.166 216.912 108.433C217 109.291 216.94 111.471 216.496 114.644M159.783 140.328C159.783 140.328 163.625 140.18 164.731 140.39M159.783 140.328C159.783 140.328 158.078 146.546 161.142 144.449C162.431 143.566 163.695 142.876 164.731 140.39M159.783 140.328C158.5 140.39 158.319 139.67 158.078 139.206M203.47 121.133C201.929 128.696 202.392 138.754 199.886 141.683C194.39 140.255 189.632 140.403 181.114 138.682C179.93 138.443 177.54 137.896 176.518 137.634M173.759 123.757C173.759 123.757 175.567 128.321 176.007 131.478C176.517 135.147 176.518 137.634 176.518 137.634M173.759 123.757L173.749 123.707M173.759 123.757C173.756 123.74 173.752 123.724 173.749 123.707M176.518 137.634C174.987 137.241 175.105 136.801 174.432 136.649M202.559 153.562C201.786 153.412 200.903 153.185 199.886 152.908C191.856 150.718 179.582 145.679 179.582 145.679C179.582 145.679 175.077 143.098 173.935 142.73M202.559 153.562L200.604 162.452H194.5H173.963H158.939H150M202.559 153.562C205.052 154.048 206.582 153.741 207.768 151.788C208.287 150.934 209.561 147.765 210 146.209M164.731 140.39C165.368 140.511 165.722 140.745 166.338 141.153C166.47 141.24 166.613 141.335 166.773 141.438C168.401 142.487 168.815 142.357 169.837 142.487C170.375 142.555 171.368 142.487 172.39 142.487C172.786 142.487 173.212 142.497 173.935 142.73M167.36 135.147C167.69 135.18 169.99 135.595 170.347 135.672C171.615 135.945 172.269 136.159 174.432 136.649M167.36 135.147C169.497 134.438 171.115 133.744 171.922 132.915C172.433 132.391 173.749 123.707 173.749 123.707M167.36 135.147C164.22 134.838 164.015 135.03 161.652 136.061C159.5 137 158.078 138.158 158.078 139.206M174.432 136.649C175.439 138.243 174.52 141.717 173.935 142.73M158.078 139.206C151.163 137.712 149.458 142.028 143 148C143 148 140.304 150.629 139 152M150 162.452C143.694 160.374 140.533 159.196 137.5 157M150 162.452H135.829L137.5 157M137.5 157L136.114 155.196C136.713 154.703 137.895 153.161 139 152M217.731 146.209L214.537 162.603M217.731 146.209H210M217.731 146.209C222.704 146.592 222.714 143.651 224.963 131.478C227.212 119.304 229.5 114.644 224.963 114.644H216.496M210 146.209C210.885 143.074 211.416 140.438 212.615 133.58C213.6 127.943 214.396 125.539 215.684 119.304C216.039 117.582 216.304 116.02 216.496 114.644M43.9569 99.3888C54.139 101.44 56.4057 102.511 59.4035 109.028C60.0481 110.429 65.7257 122.093 67.1994 125.413M43.9569 99.3888C40.4616 107.086 31.2171 101.666 26.0073 97.9991M43.9569 99.3888C40.6789 97.037 40.8783 95.5754 41.8193 91.1668M26.0073 97.9991C23.752 101.76 18.9313 100.691 12.3868 109.922C12.0889 110.342 11.8767 110.927 11.738 111.655C11.2251 114.35 11.4337 116.04 12.3242 122.222M26.0073 97.9991C27.9837 94.7032 27.1238 93.073 25.5584 88.2259M47.489 67.3492C46.2783 63.34 41.0508 58.4275 37.9048 57.0926C38.6056 62.3121 32.1513 65.3019 23.9966 66.4359C23.4063 68.9793 22.3665 72.0001 21.7035 73.8158C20.1367 72.4583 17.7354 71.2558 16.5866 73.306C15.1506 75.8687 17.2084 79.0627 20.3909 80.6738C20.8138 81.9002 21.7872 84.0901 23.1294 85.8893M47.489 67.3492C50.1869 76.2836 48.5095 84.7943 44.9726 88.9561C44.095 89.9888 43.0179 90.7026 41.8193 91.1668M47.489 67.3492C49.9995 59.9109 44.8541 51.4002 36.659 47.8136C28.4638 44.227 15.6683 49.803 15.282 55.7644C8.7594 60.216 7.6657 69.2404 13.2932 78.6671C16.5317 84.0921 21.2333 85.666 23.1294 85.8893M25.5584 88.2259C25.1008 87.9541 23.8438 86.8469 23.1294 85.8893M25.5584 88.2259C26.1472 88.5756 28.8809 90.0969 29.9556 90.5578C33.7576 92.188 37.2976 92.9182 41.8193 91.1668M17.5158 132.346C26.0354 142.817 33.0096 155.623 37.7377 153.075C41.2561 151.179 51.9049 146.96 58.232 142.044M24.005 120.536L34.3511 139.121M34.3511 139.121C34.3511 139.121 35.7475 141.525 36.2572 142.025C37.2765 143.025 38.6285 143.369 44.2054 142.536M34.3511 139.121C35.7679 137.505 37.3104 136.61 41.501 135.726M69.1985 130.953C70.9417 135.829 72.1847 139.486 70.0053 140.787C68.8021 141.505 66.3944 142.002 62.3299 142.023C61.3054 142.028 59.1852 141.969 58.232 142.044M69.1985 130.953C71.7705 130.94 70.2554 128.915 69.2384 127.413C68.3585 126.113 67.1994 125.413 67.1994 125.413M69.1985 130.953C66.1225 131.28 61.5853 132.188 57.2535 133.002M67.1994 125.413C61.0475 126.449 61.7115 127.623 59.578 129.963M57.2535 133.002C53.4589 133.695 44.6071 135.07 41.501 135.726M57.2535 133.002C58.0615 132.209 58.7971 130.82 59.578 129.963M41.501 135.726C42.8652 137.192 43.9312 140.261 44.2054 142.536M44.2054 142.536C47.9882 141.971 54.7955 142.313 58.232 142.044M58.232 142.044C57.3237 149.897 57.3395 157.153 58.2771 162.479H20.7193C20.6695 160.256 19.3689 156.324 18.9994 153.666M52.8222 116.707L59.578 129.963M18.9994 153.666C17.9169 145.878 13.6199 129.761 12.3242 122.222M18.9994 153.666L10.0891 153.711M10.0891 153.711L12.015 163M10.0891 153.711C5.61256 153.711 5.7906 150.83 3.71917 139.121C1.64773 127.413 -0.258763 122.277 2.71934 122.261C6.15596 122.244 12.3242 122.222 12.3242 122.222" stroke="#716A5F" stroke-width="2" stroke-linecap="round" stroke-linejoin="round"/>
</svg>
