<svg width="215" height="130" viewBox="0 0 215 130" fill="none" xmlns="http://www.w3.org/2000/svg">
<path d="M186.732 107.138C184.198 102.032 181.727 97.7573 180.202 96.7934C177.907 99.3684 173.974 98.6462 173.974 96.7934C170.815 97.9471 168.433 99.4529 166.447 100.958C167.223 102.033 168.71 104.612 168.457 106.332C166.442 110.344 163.724 117.234 161.717 124.155C162.434 124.211 163.16 124.239 163.894 124.239H186.811C185.998 120.897 183.928 114.927 181.077 109.959C182.398 109.646 185.379 108.643 186.732 107.138Z" fill="#FFDD1D"/>
<path d="M209.54 102.265C209.54 92.0478 205.373 82.7947 198.629 76.0739C197.841 76.1613 197.021 76.2179 196.17 76.2397C196.257 76.5031 196.321 76.7909 196.366 77.0877C196.465 77.7462 196.482 78.5156 196.412 79.3104C196.282 80.7796 195.849 82.4117 195.016 83.6241C195.103 83.8535 195.141 84.1068 195.151 84.356C195.167 84.7487 195.119 85.1985 195.027 85.6741C194.844 86.6272 194.473 87.7488 194.001 88.8492C193.529 89.9509 192.946 91.0508 192.33 91.9584C191.726 92.8479 191.046 93.6185 190.359 93.9807C189.128 94.6295 187.02 95.1386 184.988 95.0823C183.471 95.0402 181.89 94.6762 180.763 93.7208V96.4535C181.151 96.747 181.558 97.1748 181.972 97.6887C182.479 98.3177 183.026 99.1099 183.6 100.021C184.603 101.616 185.702 103.6 186.82 105.765L187.3 106.702L187.306 106.716C189.307 110.963 191.279 119.521 192.085 123.592C192.918 123.682 193.748 123.793 194.574 123.926C198.292 124.526 201.934 125.564 205.42 127.023L209.54 128.747V102.265ZM186.912 124.276C186.914 124.277 186.917 124.278 186.92 124.279C186.923 124.278 186.926 124.277 186.929 124.276V123.812L186.912 124.276ZM186.675 107.773C185.959 108.359 185.053 108.842 184.185 109.218C183.368 109.572 182.554 109.844 181.904 110.029C184.536 114.677 186.466 120.054 187.32 123.315C188.562 123.325 189.802 123.383 191.035 123.489C190.237 119.523 188.476 111.971 186.675 107.773ZM180.307 97.3737C179.076 98.5213 177.514 98.94 176.21 98.8493C175.501 98.8 174.838 98.5984 174.337 98.2495C174.015 98.0258 173.752 97.7325 173.602 97.3805C170.937 98.3946 168.844 99.6554 167.067 100.938C167.438 101.49 167.879 102.236 168.239 103.036C168.433 103.469 168.611 103.934 168.739 104.404C169.237 103.477 169.676 102.699 170.032 102.09C170.299 101.633 170.52 101.269 170.685 101.008C170.836 100.767 170.964 100.574 171.033 100.496L171.069 100.459C171.256 100.286 171.549 100.278 171.745 100.448C171.955 100.629 171.977 100.945 171.794 101.152L171.731 101.244C171.684 101.314 171.621 101.411 171.542 101.536C171.385 101.786 171.169 102.14 170.906 102.59C170.381 103.489 169.669 104.767 168.853 106.357C166.895 110.17 164.262 116.665 162.262 123.271C162.769 123.298 163.281 123.313 163.796 123.313H186.278C185.374 119.967 183.381 114.527 180.704 109.963C179.811 108.441 179.005 107.06 178.378 105.981C178.239 105.742 178.323 105.437 178.564 105.299C178.791 105.171 179.076 105.235 179.226 105.44L179.254 105.484L180.316 107.306C180.65 107.879 181.01 108.493 181.386 109.135C182.025 108.965 182.901 108.683 183.78 108.303C184.72 107.896 185.615 107.395 186.233 106.83C185.014 104.44 183.819 102.258 182.743 100.549C182.181 99.6556 181.656 98.8991 181.182 98.3115C180.852 97.9016 180.559 97.5907 180.307 97.3737ZM166.259 101.539C164.952 102.534 163.828 103.507 162.713 104.396C161.576 105.303 159.529 106.388 157.52 107.408C155.478 108.445 153.464 109.421 152.298 110.136C152.186 110.205 152.052 110.228 151.924 110.2C150.866 109.97 150.173 109.898 149.746 109.913C149.675 109.915 149.615 109.921 149.564 109.927C149.716 110.066 149.948 110.212 150.2 110.311C150.409 110.394 150.538 110.604 150.515 110.825C150.495 111.019 150.364 111.181 150.183 111.245L150.102 111.267C150.102 111.267 150.101 111.267 150.1 111.267C150.098 111.268 150.096 111.268 150.093 111.268C150.086 111.269 150.076 111.272 150.063 111.274C150.036 111.279 149.996 111.286 149.946 111.296C149.846 111.315 149.702 111.343 149.533 111.379C149.193 111.45 148.752 111.55 148.34 111.667C148.078 111.74 147.846 111.815 147.663 111.887C148.799 112.665 149.4 112.872 149.953 112.828C150.271 112.803 150.615 112.691 151.078 112.476C151.548 112.257 152.082 111.96 152.806 111.582L152.885 111.549C155.654 110.658 158.669 109.767 161.412 108.805C164.054 107.878 166.376 106.907 167.922 105.852C167.957 105.177 167.709 104.315 167.316 103.441C166.992 102.722 166.595 102.044 166.259 101.539ZM179.753 93.0444C178.293 93.5347 176.767 93.8525 175.271 93.9977C175.236 94.7783 175.112 95.4063 174.956 95.8908C174.822 96.3086 174.657 96.6377 174.493 96.8661C174.538 97.0673 174.671 97.2609 174.918 97.4327C175.234 97.6526 175.708 97.8132 176.281 97.8531C177.378 97.9293 178.724 97.5553 179.753 96.513V93.0444ZM168.424 71.4339C167.426 72.6351 166.174 74.3021 165.172 76.0032C164.148 77.7425 163.439 79.4262 163.439 80.6602C163.439 80.892 163.278 81.0934 163.05 81.1463C162.519 81.2693 162.144 81.4381 161.911 81.6101C161.677 81.7824 161.626 81.9226 161.621 82.0002C161.617 82.0758 161.647 82.2267 161.878 82.4401C162.11 82.6542 162.505 82.8906 163.108 83.1096C163.289 83.1754 163.417 83.3377 163.437 83.5275C163.544 84.5657 163.902 86.2526 164.625 87.8924C165.351 89.5397 166.415 91.0733 167.893 91.8989C169.584 92.8435 172.065 93.2398 174.74 93.042C176.52 92.9103 178.362 92.5173 180.077 91.8677C181.525 91.3191 182.876 90.5904 184.02 89.6884L184.09 89.6416C184.164 89.601 184.248 89.5792 184.334 89.5792C187.35 89.5792 189.217 88.6417 189.993 87.3814C190.713 86.2116 190.606 84.5657 189.271 82.7195C188.347 83.0334 187.037 83.2494 185.704 83.0087C184.234 82.7435 182.752 81.924 181.756 80.1296C180.258 80.234 178.808 79.7305 177.81 78.7813C176.893 77.9089 176.374 76.6745 176.543 75.2507C175.962 75.3499 175.327 75.3555 174.686 75.2863C173.71 75.1809 172.682 74.9009 171.744 74.4822C170.808 74.0644 169.939 73.4984 169.296 72.8062C168.918 72.3982 168.612 71.9377 168.424 71.4339ZM210.549 129.501C210.549 129.668 210.464 129.825 210.323 129.917C210.182 130.01 210.003 130.026 209.848 129.961L205.027 127.943C201.615 126.515 198.05 125.499 194.411 124.912C193.482 124.761 192.548 124.64 191.61 124.546C190.058 124.39 188.495 124.312 186.929 124.312H163.796C163.042 124.312 162.297 124.283 161.56 124.227C145.843 123.035 134.363 109.39 134.363 93.5399C134.363 77.3391 147.221 65.0141 163.388 64.3631C164.636 63.0247 166.387 61.8013 168.67 61.2655C170.974 60.7247 173.777 60.8941 177.089 62.2906C177.815 61.6149 178.932 60.881 180.209 60.6453C180.937 60.511 181.722 60.5377 182.508 60.8369C183.215 61.1062 183.896 61.5873 184.525 62.3242C185.738 62.077 187.025 62.3605 188.208 62.9918C189.079 63.4571 189.909 64.1186 190.639 64.9248C190.782 62.1658 192.178 59.6506 194.143 57.9179C196.348 55.9729 199.34 54.9586 202.173 55.7542C202.871 53.6332 203.746 52.2614 204.745 51.4673C205.842 50.5943 207.034 50.4616 208.14 50.7246C209.222 50.9821 210.218 51.6152 211.005 52.2704C211.796 52.9283 212.415 53.6408 212.744 54.1089C213.368 54.9986 214.402 56.6765 214.598 58.8936C214.792 61.0842 214.163 63.7344 211.662 66.6062C211.991 68.4635 210.89 70.5404 208.815 72.2429C206.789 73.9056 203.755 75.2906 199.874 75.9066C206.487 82.7589 210.549 92.043 210.549 102.265V129.501ZM135.373 93.5399C135.373 108.795 146.31 121.848 161.232 123.197C163.005 117.297 165.292 111.454 167.184 107.464C165.658 108.285 163.765 109.039 161.749 109.746C159.005 110.709 155.963 111.61 153.239 112.485C152.566 112.837 151.996 113.151 151.508 113.379C151.004 113.613 150.531 113.784 150.034 113.824C149.018 113.905 148.074 113.425 146.687 112.427C146.594 112.361 146.486 112.259 146.422 112.11C146.352 111.945 146.358 111.774 146.417 111.625C146.513 111.382 146.735 111.236 146.867 111.158C147.175 110.979 147.634 110.827 148.063 110.706C148.292 110.642 148.526 110.582 148.747 110.53C148.654 110.428 148.569 110.313 148.509 110.185C148.428 110.015 148.371 109.775 148.47 109.524C148.569 109.272 148.781 109.125 148.986 109.043C149.19 108.962 149.437 108.924 149.711 108.915C150.228 108.897 150.955 108.977 151.94 109.183C153.171 108.45 155.151 107.489 157.059 106.52C159.094 105.486 161.039 104.448 162.079 103.619C163.263 102.674 164.567 101.54 166.071 100.424C168.076 98.9372 170.487 97.4437 173.67 96.2897C173.747 96.1811 173.875 95.9576 173.995 95.5875C174.114 95.2157 174.218 94.7136 174.256 94.0704C171.666 94.1869 169.193 93.7723 167.397 92.7689C165.645 91.7904 164.466 90.0295 163.7 88.2918C162.997 86.6962 162.617 85.0638 162.468 83.9332C161.931 83.7122 161.5 83.4575 161.189 83.1706C160.823 82.8326 160.584 82.4114 160.613 81.9397C160.642 81.4701 160.928 81.0879 161.308 80.8084C161.609 80.5873 161.995 80.4091 162.447 80.2735C162.558 78.9702 163.204 77.4482 164.021 75.9866C162.725 75.336 161.965 74.2371 161.53 73.0534C161.042 71.7272 160.949 70.2645 160.949 69.1186C160.949 68.5861 161.159 67.8495 161.531 67.0651C161.78 66.5412 162.111 65.9767 162.524 65.4096C147.292 66.4535 135.373 78.2129 135.373 93.5399ZM161.959 69.1186C161.959 70.2278 162.052 71.5514 162.479 72.7125C162.856 73.7401 163.484 74.6142 164.528 75.1205C165.78 73.0713 167.325 71.1261 168.343 69.9827C168.482 69.8268 168.703 69.7723 168.9 69.8457C169.096 69.919 169.226 70.1051 169.226 70.3128C169.226 70.9501 169.515 71.5647 170.04 72.1308C170.567 72.6987 171.312 73.1936 172.16 73.5718C173.005 73.949 173.929 74.1999 174.795 74.2935C175.668 74.3877 176.444 74.3188 177.014 74.094C177.193 74.0234 177.398 74.0597 177.541 74.1881C177.683 74.3167 177.74 74.5149 177.686 74.6982C177.268 76.1083 177.684 77.2761 178.51 78.0615C179.35 78.8608 180.64 79.2839 181.978 79.1041L182.058 79.0997C182.245 79.1042 182.416 79.2105 182.5 79.3801C183.338 81.0817 184.62 81.7977 185.885 82.0261C187.178 82.2593 188.471 81.9837 189.253 81.6589L189.334 81.633C189.523 81.5891 189.725 81.657 189.847 81.813C191.534 83.9603 191.914 86.1806 190.855 87.9007C189.834 89.5607 187.594 90.5402 184.51 90.5759C183.465 91.3772 182.281 92.0402 181.026 92.5655C181.881 93.5868 183.358 94.0381 185.016 94.0841C186.897 94.1362 188.827 93.6561 189.884 93.099C190.341 92.8582 190.906 92.2645 191.492 91.4015C192.066 90.5563 192.619 89.5145 193.072 88.4591C193.525 87.4023 193.869 86.3509 194.035 85.4879C194.118 85.0555 194.154 84.6863 194.142 84.396C194.129 84.094 194.069 83.9379 194.021 83.8728C193.889 83.6938 193.892 83.4502 194.028 83.2744C194.822 82.251 195.276 80.6985 195.406 79.2236C195.47 78.4929 195.453 77.8034 195.367 77.2349C195.279 76.6496 195.127 76.255 194.972 76.0587C194.854 75.9083 194.832 75.7041 194.917 75.5326C195.001 75.3611 195.177 75.2523 195.37 75.2522C196.561 75.2522 197.69 75.183 198.755 75.0552C202.961 74.5502 206.149 73.1331 208.17 71.4744C210.216 69.7962 210.977 67.9621 210.628 66.5872C210.588 66.4272 210.629 66.2576 210.74 66.1342C213.214 63.3748 213.764 60.9209 213.592 58.9809C213.419 57.0194 212.501 55.5133 211.914 54.6784C211.637 54.2842 211.079 53.6369 210.355 53.0346C209.628 52.4296 208.773 51.9023 207.904 51.6955C207.058 51.4943 206.197 51.5931 205.377 52.2456C204.532 52.9178 203.68 54.2167 202.988 56.5256C202.948 56.6576 202.855 56.7675 202.731 56.8294C202.606 56.8914 202.462 56.9 202.331 56.8528C199.791 55.9371 196.953 56.7775 194.815 58.6635C192.68 60.5465 191.319 63.4091 191.699 66.4034C191.728 66.6341 191.593 66.8543 191.372 66.9344C191.151 67.0145 190.904 66.9331 190.776 66.7384C189.941 65.4733 188.857 64.4732 187.728 63.8705C186.597 63.2666 185.457 63.0785 184.476 63.3629C184.276 63.4209 184.061 63.3513 183.934 63.1878C183.342 62.4262 182.731 61.9925 182.145 61.7693C181.559 61.546 180.967 61.5213 180.395 61.6269C179.232 61.8414 178.177 62.5906 177.567 63.2273C177.42 63.381 177.191 63.4261 176.995 63.34C173.714 61.8927 171.032 61.737 168.902 62.2369C166.768 62.7378 165.142 63.9077 163.997 65.1852C163.299 65.963 162.784 66.7756 162.445 67.4894C162.1 68.2167 161.959 68.7981 161.959 69.1186Z" fill="#716A5F"/>
<path d="M45.5509 47.8564C36.923 46.0615 33.2902 52.3436 31.7008 56.3821C30.1114 60.4205 29.1334 71.3499 29.1334 75.1738C29.1334 79.5723 26.9601 87.0693 24.8005 90.6208C28.7443 89.8772 32.699 89.5072 36.4576 89.5072H39.3459H49.2116H51.9013C53.4943 84.9528 55.3337 79.4034 56.9791 76.2324C58.7986 72.7258 60.2143 69.9975 60.3092 68.4975C64.0899 72.5631 70.757 77.7731 76.9498 81.9454C83.4019 86.2922 85.0572 87.0599 86.6791 86.686C92.1283 85.4295 98.8012 72.1504 103.872 62.7272L98.1957 60.015C94.3358 67.1945 90.0815 75.548 87.1815 76.141C86.0353 76.3754 85.5337 76.2324 83.7656 75.1634C79.8542 72.7987 76.1654 69.8493 74.4792 68.4975C71.677 66.2511 68.4658 62.9399 65.8728 59.7172C61.7324 54.5714 57.7735 49.6512 53.7247 49.6512C54.6329 51.8948 56.1315 56.6962 54.86 57.9526C53.2706 59.5231 45.5509 54.1385 45.5509 47.8564Z" fill="#DEEFF0"/>
<path d="M70.0305 31.5151C70.0305 30.5673 70.3356 29.4359 70.6319 28.3225C70.9729 27.0411 71.3169 25.7374 71.3396 24.511C71.3591 23.4546 71.1391 22.4928 70.4848 21.678C67.3087 24.3428 63.991 26.6566 61.0261 28.4272C57.956 30.2606 55.2304 31.5337 53.421 32C53.1807 32.0619 52.9311 31.9393 52.8339 31.7113C51.9447 29.625 50.8538 28.6088 49.8192 28.4532C48.8118 28.3017 47.5559 28.9301 46.2276 30.8986C45.7218 31.6483 45.5307 32.2695 45.515 32.7726C45.4994 33.2705 45.6539 33.6944 45.9139 34.0589C46.451 34.812 47.4365 35.3041 48.2101 35.5126C48.4291 35.5716 48.5811 35.7701 48.5811 35.9965C48.5811 37.3722 48.4632 38.6764 48.2704 39.8844C47.6907 43.5158 46.4297 46.2988 45.6355 47.5643C45.6921 50.4523 47.4838 53.1826 49.5231 55.0362C50.554 55.9732 51.6173 56.6569 52.4952 57.011C52.9356 57.1886 53.3052 57.2734 53.5872 57.2806C53.87 57.2877 54.0095 57.2174 54.0768 57.1509C54.2534 56.9763 54.3916 56.607 54.4145 55.9796C54.4365 55.3741 54.3479 54.6299 54.1871 53.8301C53.8661 52.2339 53.2763 50.5059 52.8304 49.4045C52.8063 49.3448 52.7937 49.281 52.7937 49.2166C52.7937 47.7678 52.7925 45.5331 53.967 42.7482C54.045 42.5633 54.2262 42.4424 54.4272 42.4414C54.6281 42.4404 54.8105 42.5593 54.8904 42.7433C56.153 45.654 59.1141 46.9228 61.4604 46.9228C61.9248 46.9228 62.6251 46.6352 63.4742 46.069C64.3001 45.5183 65.1887 44.7576 66.0086 43.9338C66.8282 43.1103 67.5662 42.2373 68.095 41.4687C68.3597 41.0841 68.5661 40.7343 68.7043 40.4368C68.8475 40.1284 68.8964 39.9206 68.8964 39.8056C68.8964 39.5289 69.1211 39.3046 69.3983 39.3046C70.2583 39.3046 70.879 38.9305 71.296 38.5428C71.5052 38.3482 71.6594 38.153 71.7606 38.0075C71.7684 37.9963 71.7755 37.9848 71.7827 37.9742C71.7683 37.9407 71.7524 37.9043 71.7356 37.8646C71.6416 37.6419 71.5111 37.324 71.3636 36.9418C71.0693 36.1792 70.7048 35.1515 70.4319 34.1064C70.2027 33.2284 70.0305 32.3099 70.0305 31.5151ZM60.1836 69.09C59.9979 69.7559 59.6915 70.5213 59.3127 71.3564C58.7135 72.6773 57.8986 74.247 56.992 75.9939C55.4478 78.9693 53.7228 84.0887 52.18 88.5202H54.139C62.1834 88.5202 69.6151 85.9083 75.6325 81.4881C69.9562 77.6235 63.9515 72.9409 60.1836 69.09ZM116.175 57.057C115.813 57.0638 115.343 57.1057 114.762 57.1832C113.6 57.3382 112.034 57.6304 110.066 58.0409C108.908 58.2826 107.686 58.2467 106.501 58.1398C105.907 58.0862 105.312 58.0132 104.736 57.946C104.156 57.8784 103.593 57.8163 103.05 57.7801C101.956 57.7074 100.986 57.7449 100.165 58.0316C99.4991 58.2641 98.9129 58.6671 98.4346 59.3542L103.417 61.7346C105.149 61.1571 106.656 61.325 108.139 61.2443C109.696 61.1596 111.468 60.8209 113.996 59.1492C115.301 58.2857 116.132 57.6532 116.545 57.2199C116.597 57.1652 116.637 57.118 116.669 57.0785C116.554 57.0634 116.393 57.0529 116.175 57.057ZM29.2339 74.7061C29.2339 76.968 28.6778 79.9882 27.8596 82.8733C27.171 85.301 26.284 87.6729 25.358 89.4533C28.9786 88.831 32.5941 88.5202 36.0479 88.5202H38.2216C35.2802 80.1629 33.2051 68.7888 34.881 55.8744C34.9166 55.6 35.1683 55.4064 35.4431 55.4418C35.718 55.4774 35.912 55.7286 35.8764 56.003C34.2013 68.9117 36.3275 80.2583 39.2871 88.5202H48.0592C45.0083 80.4025 43.1448 69.9889 44.6382 62.1196L44.6499 62.0697C44.7222 61.8262 44.969 61.6722 45.2243 61.7204C45.4967 61.7719 45.6759 62.0342 45.6243 62.3061L45.5571 62.6755C44.2163 70.37 46.0878 80.5756 49.1335 88.5202H51.117C52.6729 84.0598 54.477 78.6622 56.101 75.533C57.0118 73.778 57.8127 72.2345 58.3986 70.943C58.9891 69.6414 59.3262 68.6659 59.3705 68.019C59.369 60.8947 58.5193 56.7695 57.2782 54.1711L57.1567 53.924L57.1361 53.8771C57.0449 53.64 57.1468 53.3678 57.3787 53.2508C57.626 53.1262 57.9276 53.2252 58.0526 53.4719C59.4535 56.2401 60.3576 60.5381 60.3738 67.8384C64.134 71.8366 70.6731 76.943 76.7755 81.0536C80.0025 83.2274 81.9982 84.4839 83.3822 85.1534C84.747 85.8136 85.4436 85.867 86.1004 85.7156C87.3115 85.4363 88.6629 84.4635 90.1139 82.9164C91.5532 81.3817 93.0363 79.3414 94.5191 77.0283C97.3893 72.5506 100.216 67.1222 102.697 62.5013L97.9327 60.2256C96.0775 63.683 94.1245 67.3981 92.2822 70.3514C91.3235 71.8882 90.3832 73.2379 89.49 74.2462C88.616 75.2326 87.7127 75.9797 86.8155 76.1632C86.2016 76.2887 85.7003 76.3246 85.1035 76.1539C84.5412 75.993 83.9209 75.6551 83.0431 75.1244C79.1046 72.7438 75.3966 69.7792 73.7127 68.4295C70.8792 66.1583 67.6462 62.8232 65.0387 59.5832C62.9643 57.0054 60.9654 54.5234 58.9863 52.6822C57.2689 51.0847 55.6355 50.0378 54.0493 49.7803C54.4534 50.876 54.9014 52.291 55.1712 53.6329C55.3393 54.4688 55.4434 55.2992 55.4173 56.0158C55.3919 56.71 55.2409 57.4105 54.7826 57.8633C54.453 58.1888 54.0043 58.2938 53.5617 58.2826C53.1181 58.2714 52.625 58.1441 52.1193 57.9401C51.1049 57.531 49.9425 56.7725 48.8473 55.777C46.7579 53.8778 44.8001 51.0092 44.6406 47.8388C40.689 47.1182 37.9015 48.1852 35.9019 49.8786C33.8128 51.6477 32.5465 54.1335 31.7638 56.1219C30.9968 58.0705 30.3604 61.7464 29.9171 65.462C29.4757 69.1615 29.2339 72.8237 29.2339 74.7061ZM1.00375 99.6466C7.33085 94.5994 15.6885 91.298 24.0857 89.6847C25.0949 87.96 26.1163 85.3424 26.8941 82.6003C27.7005 79.7568 28.2301 76.8369 28.2301 74.7061C28.2301 72.7695 28.4767 69.0646 28.9207 65.3436C29.3627 61.6385 30.0086 57.8402 30.8292 55.7555C31.6341 53.7106 32.9759 51.0428 35.2525 49.1148C37.4937 47.2168 40.6058 46.0678 44.8867 46.8661C45.5763 45.7055 46.6355 43.3207 47.1971 40.2054C44.6185 39.6529 42.8353 38.2537 41.6754 36.41C40.4538 34.468 39.9391 32.0607 39.8571 29.6837C39.775 27.3026 40.1254 24.9123 40.6707 22.9702C40.9434 21.9988 41.2675 21.13 41.6166 20.4249C41.8203 20.0135 42.0407 19.6427 42.2739 19.3362C40.8313 18.5555 39.7117 17.6099 38.8891 16.5517C17.4353 19.836 1.00375 38.3414 1.00375 60.6777V99.6466ZM91.4475 52.2766C91.4475 60.6282 88.692 68.338 84.0414 74.5505C84.6474 74.902 85.045 75.0947 85.3799 75.1905C85.7613 75.2996 86.0836 75.2897 86.6145 75.1812C87.1656 75.0684 87.8803 74.5505 88.7382 73.5822C89.5768 72.6356 90.4828 71.3405 91.4304 69.8215C93.3257 66.7833 95.3412 62.9256 97.2745 59.3302C97.9139 58.1411 98.7971 57.4478 99.8334 57.0858C100.848 56.7315 101.981 56.7045 103.117 56.78C103.688 56.818 104.272 56.8831 104.852 56.9508C105.436 57.0189 106.014 57.0896 106.591 57.1416C107.747 57.2459 108.85 57.2708 109.861 57.0599C111.834 56.6483 113.429 56.35 114.629 56.1899C115.229 56.11 115.74 56.0632 116.157 56.0554C116.558 56.0479 116.927 56.0746 117.206 56.1792C117.35 56.2332 117.513 56.3231 117.632 56.4806C117.762 56.6519 117.802 56.8525 117.777 57.0438C117.735 57.3688 117.505 57.6655 117.272 57.9103C116.772 58.4354 115.853 59.1234 114.55 59.9849C111.862 61.7629 109.914 62.1513 108.194 62.2449C106.521 62.3358 105.282 62.1678 103.736 62.6862C101.231 67.3456 98.321 72.9562 95.3645 77.5684C93.8674 79.904 92.3463 82.0024 90.8467 83.6014C89.3589 85.1877 87.8362 86.3435 86.3258 86.6917C85.3626 86.9137 84.4225 86.7701 82.9445 86.0551C81.5309 85.3713 79.5592 84.1312 76.5108 82.0831C70.2775 86.7533 62.5319 89.5222 54.139 89.5222H36.0479C32.3258 89.5222 28.4066 89.8885 24.4969 90.6256C15.7704 92.2707 7.12759 95.7548 0.826333 101.09C0.677249 101.216 0.468486 101.244 0.291128 101.162C0.113712 101.08 0 100.903 0 100.707V60.6777C0 38.0026 16.561 19.1905 38.2667 15.6358C36.9307 13.3695 36.8246 10.7675 37.5888 8.36199C38.4274 5.72254 40.3174 3.29602 42.8242 1.73653C46.0192 -0.250909 50.0026 -0.612041 53.4048 1.06866C56.7375 2.71497 59.4272 6.27609 60.3076 11.9813C62.3149 12.1028 64.4278 13.0385 66.2507 14.141C68.0981 15.2582 69.7077 16.5839 70.7 17.5347C74.0698 16.9961 76.3927 17.9617 77.9096 19.6636C79.3894 21.3239 80.042 23.6188 80.2514 25.6755C87.1597 32.4349 91.4475 41.8561 91.4475 52.2766ZM71.0343 31.5151C71.0343 32.1022 71.1479 32.8071 71.3249 33.5422C71.8949 33.6125 72.608 33.5434 73.3922 33.3284C74.3096 33.0769 75.2856 32.6377 76.1775 32.0494C77.9828 30.8586 79.3289 29.1427 79.329 27.2578C79.329 26.8392 79.3108 26.4001 79.2706 25.9509C79.0916 23.9509 78.4816 21.8131 77.1597 20.33C75.8683 18.881 73.8352 17.9863 70.6211 18.5637C70.4602 18.5926 70.2952 18.5414 70.179 18.4267C69.2588 17.5175 67.6227 16.1425 65.7307 14.9982C63.8265 13.8466 61.7303 12.9701 59.8729 12.9701C59.6219 12.9701 59.4093 12.7849 59.3754 12.5366C58.5987 6.83603 56.0097 3.47314 52.9598 1.9665C49.8985 0.454213 46.2841 0.765245 43.3555 2.58692C41.0443 4.02465 39.3095 6.26034 38.5455 8.66486C37.7836 11.063 37.9914 13.6053 39.5179 15.718C40.3486 16.8675 41.5836 17.9112 43.3075 18.7398C43.4617 18.8139 43.5677 18.9612 43.5883 19.1307C43.6089 19.3003 43.5413 19.4687 43.4094 19.5775C43.1509 19.7903 42.8379 20.2194 42.5165 20.8687C42.2008 21.5062 41.8972 22.3147 41.6372 23.2408C41.117 25.0937 40.7821 27.3808 40.8604 29.649C40.9387 31.9214 41.43 34.136 42.5253 35.8771C43.5368 37.485 45.0765 38.7123 47.3544 39.2141C47.4787 38.3112 47.5577 37.3578 47.5735 36.364C46.736 36.0752 45.7243 35.5206 45.0964 34.6402C44.7252 34.1198 44.4886 33.4846 44.5117 32.7418C44.5347 32.0041 44.8127 31.2024 45.3954 30.3389C46.7886 28.2741 48.3679 27.2217 49.9686 27.4623C51.4421 27.6839 52.6673 28.9686 53.5769 30.9138C55.2498 30.4057 57.7025 29.2443 60.511 27.5671C63.5461 25.7545 66.9633 23.3621 70.207 20.6025L70.2452 20.5727C70.4417 20.4356 70.7116 20.4559 70.8853 20.6275C72.0291 21.7576 72.3691 23.1397 72.3434 24.5296C72.318 25.8995 71.9361 27.324 71.6018 28.5799C71.2934 29.7389 71.0343 30.7272 71.0343 31.5151ZM80.3327 27.2578C80.3326 29.6301 78.6621 31.6112 76.7309 32.8851C75.7544 33.5292 74.6817 34.0141 73.6578 34.2948C72.9505 34.4887 72.2472 34.5899 71.6048 34.5683C71.8282 35.3108 72.0823 36.0166 72.3002 36.5812C72.4434 36.9522 72.5698 37.2604 72.6605 37.4751C72.7058 37.5825 72.742 37.6665 72.7668 37.7232C72.7792 37.7516 72.7889 37.773 72.7952 37.7873C72.7984 37.7944 72.8011 37.7995 72.8026 37.803C72.8034 37.8047 72.8037 37.8061 72.8041 37.8069L72.8046 37.8079C72.8665 37.9457 72.8629 38.1041 72.7948 38.2389L72.3468 38.0129L72.7943 38.2394V38.2399L72.7938 38.2409C72.7934 38.2416 72.7928 38.2424 72.7923 38.2433C72.7913 38.2453 72.7898 38.2479 72.7884 38.2507C72.7855 38.2562 72.7818 38.2635 72.7771 38.2722C72.7675 38.2899 72.7537 38.3142 72.7364 38.3436C72.7018 38.4025 72.6515 38.4834 72.585 38.579C72.4524 38.7696 72.2523 39.0228 71.9797 39.2762C71.5018 39.7206 70.7896 40.1746 69.8296 40.2822C69.7783 40.4731 69.7034 40.668 69.6149 40.8586C69.4457 41.2228 69.2069 41.6223 68.9224 42.0358C68.3527 42.8637 67.5738 43.7833 66.7208 44.6403C65.8682 45.4969 64.9283 46.3046 64.032 46.9023C63.159 47.4844 62.2433 47.9249 61.4604 47.9249C59.1018 47.9249 56.1507 46.7935 54.5056 44.1603C53.8859 46.0155 53.809 47.5596 53.7994 48.7391C55.8389 48.9232 57.7935 50.2027 59.671 51.9493C61.7139 53.8498 63.7602 56.3946 65.8214 58.9559C68.3943 62.1529 71.5766 65.4322 74.3411 67.6481C75.9698 68.9536 79.4467 71.7301 83.1773 74.0299C87.7389 67.971 90.4438 60.4402 90.4438 52.2766C90.4438 42.5358 86.5948 33.6935 80.3317 27.1805C80.3319 27.2063 80.3327 27.2322 80.3327 27.2578Z" fill="#716A5F"/>
</svg>
