<svg width="107" height="188" viewBox="0 0 107 188" fill="none" xmlns="http://www.w3.org/2000/svg">
<path d="M89.5633 148.038C82.642 126.978 76.5515 123.079 63.7471 116.93C61.1488 126.504 56.7549 133.909 51.9747 128.576C49.6976 131.703 47.9009 143.116 48.6599 147.167C49.9248 149.62 50.8282 151.311 52.6853 153.227C56.0946 156.744 62.7399 157.769 62.7399 157.769C66.4907 158.708 70.3697 159.463 74.7671 160.307C78.1404 160.954 80.0058 161.335 82.2327 161.297C83.4507 161.276 84.5061 159.996 87.2343 159.996C88.9842 159.996 90.8719 159.996 92.243 159.16C92.243 159.16 92.0334 158.261 91.9178 157.49C91.479 154.562 90.7365 151.608 89.5633 148.038Z" fill="#FFA616"/>
<path d="M48.6599 147.167C47.9009 143.116 49.6976 131.703 51.9747 128.576C51.7784 125.782 51.6599 120.292 49.2443 117.168C46.1824 122.231 44.1916 125.121 42.4243 126.621C44.3025 132.831 46.3959 141.087 48.6599 147.167Z" fill="#DEEFF0"/>
<path d="M90.6869 180.476C90.6869 180.476 92.191 172.424 92.5678 168.063C90.7264 170.725 87.2927 170.663 85.5823 170.797C84.5621 170.881 82.1446 170.299 80.8686 170.318C80.8686 170.318 74.2645 170.287 72.0199 170.318C69.8781 174.715 68.7689 176.853 66.4056 180.476L90.6869 180.476Z" fill="#FFA616"/>
<path d="M72.0199 170.318C66.7536 170.391 59.9808 169.195 59.9808 169.195C59.0146 172.234 58.7758 177.935 54.4699 176.364C53.5266 176.02 50.4914 174.946 49.0269 174.41C47.0554 173.688 42.5785 171.677 40.0594 170.687C39.6203 172.287 37.779 175.415 34.4894 176.82C36.525 177.77 39.8508 179.773 42.674 180.912C44.722 181.739 47.7369 183.014 50.8585 184.095C58.4825 186.735 61.4945 188.004 66.4056 180.476C68.7689 176.853 69.8781 174.715 72.0199 170.318Z" fill="#FFA616"/>
<path fill-rule="evenodd" clip-rule="evenodd" d="M22.0696 118.342C23.0535 119.949 31.8934 126.688 37.2897 127.802C39.2799 128.213 40.752 128.04 42.4243 126.621C44.3025 132.831 46.3959 141.087 48.6599 147.167C49.9248 149.62 50.8282 151.311 52.6853 153.227C56.0946 156.744 62.7399 157.769 62.7399 157.769C66.4907 158.708 70.3697 159.463 74.7671 160.307C78.1404 160.954 80.0058 161.335 82.2327 161.297C83.1726 163.133 81.8297 168.147 80.8686 170.318C80.8686 170.318 74.2645 170.287 72.0199 170.318C66.7536 170.391 59.9808 169.195 59.9808 169.195C56.3655 168.621 51.9183 168.136 49.0269 167.487L49.0269 174.41C47.0554 173.688 42.5785 171.677 40.0594 170.687C38.6516 170.134 34.6303 163.632 35.1525 168.063C35.6746 172.493 30.6774 164.088 29.4878 164.088C28.0809 164.088 28.2055 168.747 29.0835 171.096C29.9616 173.444 31.5768 175.461 34.4894 176.82C36.525 177.77 39.8508 179.773 42.674 180.912L4.21198 180.672C7.13862 165.701 8.03343 158.564 7.32111 146.51C4.91369 105.772 8.87012 100.698 8.87012 100.698C10.4675 102.223 12.8889 103.414 15.1309 102.707C15.5114 103.743 15.8702 104.738 16.1814 105.628C16.5369 106.645 16.8305 107.526 17.0236 108.176C17.565 109.999 17.3482 111.498 17.1548 112.835C16.9515 114.241 16.7741 115.468 17.5304 116.703C18.3428 118.03 19.3382 117.906 20.2331 117.794C20.9638 117.703 21.6274 117.62 22.0696 118.342Z" fill="#DEEFF0"/>
<path d="M54.4699 176.364C58.7758 177.935 59.0146 172.234 59.9808 169.195C56.3655 168.621 51.9183 168.136 49.0269 167.487L49.0269 174.41C50.4914 174.946 53.5266 176.02 54.4699 176.364Z" fill="#FFA616"/>
<path d="M58.4104 62.6102C59.5791 58.3597 55.5883 59.5249 53.71 60.3067C53.155 59.7224 52.6038 59.1744 52.0568 58.6612C49.2264 56.0054 46.5093 54.2783 43.9772 53.2457C35.2999 49.7071 28.7952 54.3246 27.3468 57.6696C15.8236 58.0972 11.426 66.313 10.3303 70.2978C7.09248 69.6291 7.59484 71.6044 8.25075 72.6757C-3.25753 80.8267 1.42328 92.321 7.07307 97.6989C7.12339 98.5454 7.81799 99.6942 8.87012 100.698M58.4104 62.6102C61.2947 61.7565 64.3672 63.3905 67.1846 65.2322C70.0501 67.848 73.0723 72.7655 70.1674 75.6368C77.2781 75.7016 74.96 81.5395 71.6581 85.7705C72.9803 87.0291 73.9025 89.7426 73.3668 92.973M58.4104 62.6102C66.5851 60.6007 72.896 57.0316 87.0991 47.517C90.7699 51.9927 88.2563 57.8573 86.0707 62.9564C85.092 65.2398 84.179 67.3699 83.9168 69.1528C83.6956 70.6569 83.7688 72.4723 83.9812 74.2813M15.1309 102.707C13.9463 99.4816 12.5512 95.8576 11.7241 93.7465C17.7048 92.7358 22.6286 90.3838 24.343 89.3341C31.7071 93.6623 41.5582 94.9949 45.5632 95.1202C48.7384 88.7575 54.8652 87.2154 57.6901 89.9044C60.515 92.5933 62.7399 101.795 56.3709 105.072C57.1524 106.349 58.2673 107.198 59.4167 107.626M15.1309 102.707C12.8889 103.414 10.4675 102.223 8.87012 100.698M15.1309 102.707C15.5114 103.743 15.8702 104.738 16.1814 105.628C16.5369 106.645 16.8305 107.526 17.0235 108.176C17.565 109.999 17.3482 111.498 17.1548 112.835C16.9515 114.241 16.7741 115.468 17.5304 116.703C18.3428 118.03 19.3382 117.906 20.2331 117.794C20.9637 117.703 21.6274 117.62 22.0696 118.342C23.0535 119.949 31.8934 126.688 37.2897 127.802C39.2799 128.213 40.752 128.04 42.4243 126.621M63.747 116.93C59.8116 110.502 60.3692 109.989 59.4167 107.626M63.747 116.93C76.5515 123.079 82.642 126.978 89.5633 148.038C90.7365 151.608 91.479 154.562 91.9178 157.49M63.747 116.93C61.1488 126.504 56.7549 133.909 51.9747 128.576M59.4167 107.626C61.8847 108.545 64.5116 107.521 64.3387 104.612C64.9802 104.22 65.5815 103.819 66.1444 103.411C70.7835 100.052 72.8239 96.247 73.3668 92.973M59.9808 169.195C59.9808 169.195 66.7536 170.391 72.0199 170.318M59.9808 169.195C59.0146 172.234 58.7758 177.935 54.4699 176.364C53.5266 176.02 50.4914 174.946 49.0269 174.41M59.9808 169.195C56.3655 168.621 51.9183 168.136 49.0269 167.487M22.7571 134.945C24.4489 140.368 31.4753 150.167 36.7482 158.634C39.302 162.734 42.4546 165.941 47.6986 167.181C48.1485 167.287 48.59 167.389 49.0269 167.487M62.7399 157.769C64.3443 152.281 64.3495 146.903 64.1918 144.065M62.7399 157.769C66.4907 158.708 70.3697 159.463 74.7671 160.307C78.1404 160.954 80.0058 161.335 82.2327 161.297M62.7399 157.769C62.7399 157.769 56.0946 156.744 52.6853 153.227C50.8282 151.311 49.9248 149.62 48.6599 147.167M72.0199 170.318C69.8781 174.715 68.7689 176.853 66.4056 180.476M72.0199 170.318C74.2645 170.287 80.8686 170.318 80.8686 170.318M48.6599 147.167C47.9009 143.116 49.6976 131.703 51.9747 128.576M48.6599 147.167C46.3959 141.087 44.3025 132.831 42.4243 126.621M51.9747 128.576C51.7784 125.782 51.6599 120.292 49.2443 117.168C46.1823 122.231 44.1916 125.121 42.4243 126.621M40.0594 170.687C39.6203 172.287 37.779 175.415 34.4894 176.82M40.0594 170.687C42.5785 171.677 47.0554 173.688 49.0269 174.41M40.0594 170.687C38.6516 170.134 34.6303 163.632 35.1525 168.063C35.6746 172.493 30.6774 164.088 29.4878 164.088C28.0809 164.088 28.2055 168.747 29.0835 171.096C29.9616 173.444 31.5768 175.461 34.4894 176.82M34.4894 176.82C36.525 177.77 39.8508 179.773 42.674 180.912M92.5678 168.063C92.191 172.424 90.6869 180.476 90.6869 180.476L66.4056 180.476M92.5678 168.063C90.7264 170.725 87.2927 170.663 85.5823 170.797C84.5621 170.881 82.1446 170.299 80.8686 170.318M92.5678 168.063C96.3852 159.939 95.6672 156.922 91.9178 157.49M91.9178 157.49C92.0334 158.261 92.243 159.16 92.243 159.16C90.8719 159.996 88.9842 159.996 87.2343 159.996C84.5061 159.996 83.4507 161.276 82.2327 161.297M8.87012 100.698C8.87012 100.698 4.91369 105.772 7.32111 146.51C8.03343 158.564 7.13862 165.701 4.21198 180.672L42.674 180.912M66.4056 180.476C61.4945 188.004 58.4825 186.735 50.8585 184.095C47.7369 183.014 44.722 181.739 42.674 180.912M82.2327 161.297C83.1726 163.133 81.8297 168.147 80.8686 170.318M83.9812 74.2813C84.4838 78.5623 85.7653 82.8077 85.7653 82.8077C85.7653 82.8077 83.3175 86.3379 79.0287 85.9948C78.8058 87.5104 76.4397 90.2742 73.3668 92.973M83.9812 74.2813C89.8292 76.1463 103.454 70.7157 104.741 61.9693C104.872 61.0797 104.969 60.1441 105.022 59.1825C105.49 50.6909 102.47 40.1816 87.9793 41.5327C84.5725 37.3789 75.662 28.9036 67.2751 28.2327C67.4603 4.02841 49.1439 -2.56009 35.1266 4.23638C24.0973 9.58406 17.0772 22.1729 22.5808 32.0205C24.0718 34.6883 26.482 37.155 29.9806 39.222C26.9162 41.2086 22.5285 49.9333 21.2282 59.0876M49.0269 167.487L49.0269 174.41" stroke="#716A5F" stroke-width="2" stroke-linecap="round" stroke-linejoin="round"/>
</svg>
