<svg width="146" height="165" viewBox="0 0 146 165" fill="none" xmlns="http://www.w3.org/2000/svg">
<path d="M91.7877 92.2582C91.7877 94.9484 87.9759 97.6387 81.6231 96.2935C79.9101 95.9308 78.9361 94.9814 78.4009 93.6033C77.9231 93.8028 77.405 94.0691 76.8404 94.3593C73.5967 96.0268 68.8146 98.485 61.2939 93.6033C59.4248 94.9873 52.644 92.7961 48.5782 89.5678C43.0395 92.5032 39.5084 89.4387 37.9946 84.1486C28.2489 82.5575 21.1836 125.728 19.2907 138.823C18.0036 147.727 19.2904 153.13 24.8675 154.948C30.4444 156.767 39.4534 156.739 42.8855 156.767C49.8582 156.767 77.7403 154.95 86.6959 156.493C85.8489 153.43 84.663 145.366 86.6959 141.062C91.7877 138.823 96.2144 137.709 95.6519 139.501C94.6388 142.73 110.238 139.501 112.107 134.69C117.02 93.3454 117.19 80.152 107.195 80.152C105.981 81.5998 104.257 82.5575 101.952 82.5575C101.952 87.938 96.87 96.2935 91.7877 92.2582Z" fill="#DEEFF0"/>
<path d="M42.8855 156.767C42.8855 156.767 62.482 160.314 75.0601 162.216C99.5162 165.916 102.516 164.033 105.421 154.95C100.018 156.499 93.644 156.496 87.4968 156.493L86.6959 156.493C77.7403 154.95 49.8582 156.767 42.8855 156.767Z" fill="#DEEFF0"/>
<path d="M61.2939 82.5575C57.3068 81.9309 53.3567 79.8206 49.8582 76.1168C44.7759 70.7363 38.423 41.1437 54.9405 33.073C55.6108 33.8919 56.393 34.8721 57.2643 35.9642C63.5501 43.8423 74.4814 57.5427 81.6231 58.4878C81.6231 58.4878 89.2371 54.2905 89.2371 62.3612C89.2371 68.8178 85.0113 70.7363 81.6231 70.7363C80.4638 72.7818 79.1576 74.5784 77.7403 76.1168M61.2939 82.5575C66.3762 86.0137 63.748 91.7862 61.2939 93.6033M61.2939 82.5575C67.1297 83.4746 73.045 81.213 77.7403 76.1168M61.2939 93.6033C59.4248 94.9873 52.644 92.7961 48.5782 89.5678C43.0395 92.5032 39.5085 89.4386 37.9946 84.1486M61.2939 93.6033C68.8146 98.485 73.5967 96.0268 76.8404 94.3593C77.405 94.0691 77.9231 93.8028 78.4009 93.6033M77.7403 76.1168C78.2029 79.3636 78.0528 82.6105 77.9179 85.5264C77.7672 88.7865 77.6356 91.633 78.4009 93.6033M37.9946 84.1486C37.4272 82.166 37.1432 79.8708 37.143 77.4618C37.1424 70.2357 38.0706 59.6355 39.3728 50.9503M37.9946 84.1486C28.2489 82.5575 21.1836 125.728 19.2907 138.823C18.0036 147.727 19.2904 153.13 24.8675 154.948C30.4444 156.767 39.4535 156.739 42.8855 156.767M105.421 154.95C111.059 153.333 115.815 138.823 112.107 134.69M105.421 154.95C102.516 164.033 99.5162 165.916 75.0601 162.216C62.482 160.314 42.8855 156.767 42.8855 156.767M105.421 154.95C100.018 156.499 93.644 156.496 87.4968 156.493M112.107 134.69C117.02 93.3454 117.19 80.152 107.195 80.152M112.107 134.69C110.238 139.501 94.6388 142.73 95.6519 139.501M86.6959 141.062C79.0751 144.413 46.4286 137.696 36.8786 138.823C36.8786 131.29 40.6271 117.234 42.8846 112.75M86.6959 141.062C84.663 145.366 85.8489 153.43 86.6959 156.493M86.6959 141.062C91.7877 138.823 96.2144 137.709 95.6519 139.501M107.195 80.152C105.981 81.5998 104.257 82.5575 101.952 82.5575C101.952 87.938 96.87 96.2935 91.7877 92.2582C91.7877 94.9484 87.9759 97.6387 81.6231 96.2935C79.9101 95.9309 78.9361 94.9814 78.4009 93.6033M107.195 80.152C109.995 76.8113 110.078 70.8612 108.305 68.046C107.7 67.0854 106.591 65.515 105.218 63.5707L105.217 63.5697C102.074 59.118 97.5467 52.7067 94.5151 47.1665M42.8855 156.767C49.8582 156.767 77.7403 154.95 86.6959 156.493M86.6959 156.493C86.9624 156.493 87.2294 156.493 87.4968 156.493M86.6959 156.493L87.4968 156.493M97.3679 115.93C97.7969 125.923 97.655 133.118 95.6519 139.501M39.3728 50.9503C16.981 50.242 1.53017 46.2812 1.01334 40.1144C0.255769 31.0752 31.8712 20.719 71.6283 16.9833C111.385 13.2477 144.229 17.5471 144.987 26.5863C145.611 34.0313 124.274 42.3696 94.5151 47.1665M39.3728 50.9503C40.2008 45.4273 41.18 40.6787 42.1678 38.0643C42.238 37.8787 42.3091 37.6941 42.3814 37.5106M93.8061 45.8324C116.406 51.4571 133.561 51.9659 135.279 46.3047C137.488 39.0218 113.312 24.2855 81.2796 13.3902C49.2473 2.49484 21.4889 -0.43359 19.2794 6.84932C17.7183 11.995 29.3289 20.8614 47.5757 29.465M93.8061 45.8324C92.9294 44.1291 92.2261 42.5363 91.7877 41.1437C90.208 36.1267 83.7188 29.4027 75.9821 25.6788M93.8061 45.8324C94.0315 46.2703 94.2684 46.7155 94.5151 47.1665M47.5757 29.465C50.4623 26.8003 54.6834 24.6744 61.2939 23.2748C66.1016 22.2569 71.273 23.4121 75.9821 25.6788M47.5757 29.465C45.067 31.7808 43.5664 34.5037 42.3814 37.5106M75.9821 25.6788C93.5317 17.5127 105.375 8.45984 103.762 3.82409C101.83 -1.72783 81.3292 1.15821 57.9724 10.2702C34.6156 19.3823 17.2473 31.2697 19.1792 36.8216C20.442 40.4508 29.6389 40.4745 42.3814 37.5106" stroke="#716A5F" stroke-width="2" stroke-linecap="round" stroke-linejoin="round"/>
</svg>
